<svg width="33" height="33" viewBox="0 0 33 33" fill="none" xmlns="http://www.w3.org/2000/svg">
<path d="M22.5205 16.8322L31.6178 7.73494C32.7342 6.61858 32.7342 4.80858 31.6178 3.69131L29.596 1.66949C28.4796 0.553123 26.6696 0.553123 25.5524 1.66949L16.4551 10.7668L7.35781 1.66949C6.24144 0.553123 4.43144 0.553123 3.31417 1.66949L1.29235 3.69131C0.175987 4.80767 0.175987 6.61767 1.29235 7.73494L10.3896 16.8322L1.29235 25.9295C0.175987 27.0459 0.175987 28.8559 1.29235 29.9731L3.31417 31.9949C4.43053 33.1113 6.24144 33.1113 7.35781 31.9949L16.4551 22.8977L25.5524 31.9949C26.6687 33.1113 28.4796 33.1113 29.596 31.9949L31.6178 29.9731C32.7342 28.8568 32.7342 27.0468 31.6178 25.9295L22.5205 16.8322Z" fill="#585858"/>
</svg>
