<svg width="33" height="25" viewBox="0 0 33 25" fill="none" xmlns="http://www.w3.org/2000/svg">
<path d="M32.1086 8.17842C32.3523 7.98467 32.7148 8.16592 32.7148 8.47217V21.2534C32.7148 22.9097 31.3711 24.2534 29.7148 24.2534H3.71484C2.05859 24.2534 0.714844 22.9097 0.714844 21.2534V8.47842C0.714844 8.16592 1.07109 7.99092 1.32109 8.18467C2.72109 9.27217 4.57734 10.6534 10.9523 15.2847C12.2711 16.2472 14.4961 18.2722 16.7148 18.2597C18.9461 18.2784 21.2148 16.2097 22.4836 15.2847C28.8586 10.6534 30.7086 9.26592 32.1086 8.17842ZM16.7148 16.2534C18.1648 16.2784 20.2523 14.4284 21.3023 13.6659C29.5961 7.64717 30.2273 7.12217 32.1398 5.62217C32.5023 5.34092 32.7148 4.90342 32.7148 4.44092V3.25342C32.7148 1.59717 31.3711 0.253418 29.7148 0.253418H3.71484C2.05859 0.253418 0.714844 1.59717 0.714844 3.25342V4.44092C0.714844 4.90342 0.927344 5.33467 1.28984 5.62217C3.20234 7.11592 3.83359 7.64717 12.1273 13.6659C13.1773 14.4284 15.2648 16.2784 16.7148 16.2534Z" fill="#EAEAF0"/>
</svg>
