<svg width="581" height="380" viewBox="0 0 581 380" fill="none" xmlns="http://www.w3.org/2000/svg">
<g filter="url(#filter0_d)">
<rect x="12.6133" y="8.83228" width="497.108" height="195.037" rx="20" fill="white"/>
</g>
<path d="M26.3457 59.8247C26.3457 53.1973 31.7183 47.8247 38.3457 47.8247H421.115C427.743 47.8247 433.115 53.1973 433.115 59.8247V178.152C433.115 184.78 427.743 190.152 421.115 190.152H38.3457C31.7183 190.152 26.3457 184.78 26.3457 178.152V59.8247Z" fill="url(#paint0_linear)"/>
<path d="M455.694 63.8225C455.722 63.8691 455.75 63.9345 455.778 64.0185C455.806 64.0931 455.82 64.1771 455.82 64.2705C455.82 64.4291 455.782 64.5551 455.708 64.6485C455.633 64.7418 455.526 64.7885 455.386 64.7885H451.578V67.7005H455.204C455.232 67.7471 455.26 67.8125 455.288 67.8965C455.316 67.9711 455.33 68.0551 455.33 68.1485C455.33 68.3071 455.292 68.4331 455.218 68.5265C455.143 68.6198 455.036 68.6665 454.896 68.6665H451.578V72.3205C451.531 72.3391 451.456 72.3578 451.354 72.3765C451.26 72.3951 451.162 72.4045 451.06 72.4045C450.64 72.4045 450.43 72.2365 450.43 71.9005V64.4385C450.43 64.2518 450.486 64.1025 450.598 63.9905C450.71 63.8785 450.859 63.8225 451.046 63.8225H455.694ZM462.926 63.8225C462.954 63.8691 462.982 63.9345 463.01 64.0185C463.038 64.0931 463.052 64.1771 463.052 64.2705C463.052 64.4291 463.015 64.5551 462.94 64.6485C462.865 64.7418 462.758 64.7885 462.618 64.7885H458.81V67.7005H462.436C462.464 67.7471 462.492 67.8125 462.52 67.8965C462.548 67.9711 462.562 68.0551 462.562 68.1485C462.562 68.3071 462.525 68.4331 462.45 68.5265C462.375 68.6198 462.268 68.6665 462.128 68.6665H458.81V72.3205C458.763 72.3391 458.689 72.3578 458.586 72.3765C458.493 72.3951 458.395 72.4045 458.292 72.4045C457.872 72.4045 457.662 72.2365 457.662 71.9005V64.4385C457.662 64.2518 457.718 64.1025 457.83 63.9905C457.942 63.8785 458.091 63.8225 458.278 63.8225H462.926ZM470.851 64.7605C470.851 64.8911 470.809 65.0031 470.725 65.0965C470.65 65.1898 470.561 65.2598 470.459 65.3065C470.216 65.1385 469.931 64.9798 469.605 64.8305C469.278 64.6811 468.853 64.6065 468.331 64.6065C467.901 64.6065 467.505 64.6811 467.141 64.8305C466.777 64.9798 466.459 65.1991 466.189 65.4885C465.918 65.7778 465.703 66.1418 465.545 66.5805C465.395 67.0191 465.321 67.5231 465.321 68.0925C465.321 68.6711 465.395 69.1751 465.545 69.6045C465.694 70.0338 465.899 70.3931 466.161 70.6825C466.431 70.9718 466.753 71.1911 467.127 71.3405C467.5 71.4805 467.915 71.5505 468.373 71.5505C468.858 71.5505 469.278 71.4851 469.633 71.3545C469.997 71.2145 470.3 71.0511 470.543 70.8645C470.636 70.9018 470.725 70.9718 470.809 71.0745C470.893 71.1678 470.935 71.2798 470.935 71.4105C470.935 71.6065 470.823 71.7838 470.599 71.9425C470.384 72.0918 470.09 72.2225 469.717 72.3345C469.343 72.4558 468.867 72.5165 468.289 72.5165C467.701 72.5165 467.155 72.4231 466.651 72.2365C466.147 72.0498 465.708 71.7745 465.335 71.4105C464.971 71.0371 464.681 70.5751 464.467 70.0245C464.252 69.4738 464.145 68.8298 464.145 68.0925C464.145 67.3551 464.252 66.7111 464.467 66.1605C464.691 65.6005 464.989 65.1338 465.363 64.7605C465.736 64.3871 466.17 64.1071 466.665 63.9205C467.169 63.7338 467.696 63.6405 468.247 63.6405C468.629 63.6405 468.979 63.6731 469.297 63.7385C469.623 63.8038 469.899 63.8925 470.123 64.0045C470.356 64.1071 470.533 64.2285 470.655 64.3685C470.785 64.4991 470.851 64.6298 470.851 64.7605ZM476.141 63.8085C476.225 63.7898 476.318 63.7758 476.421 63.7665C476.533 63.7478 476.631 63.7385 476.715 63.7385C476.911 63.7385 477.088 63.7851 477.247 63.8785C477.406 63.9718 477.485 64.1538 477.485 64.4245V69.3245H478.885C478.913 69.3711 478.941 69.4365 478.969 69.5205C478.997 69.5951 479.011 69.6838 479.011 69.7865C479.011 70.1038 478.866 70.2625 478.577 70.2625H477.485V72.3625C477.438 72.3811 477.368 72.3998 477.275 72.4185C477.191 72.4371 477.098 72.4465 476.995 72.4465C476.594 72.4465 476.393 72.2831 476.393 71.9565V70.2625H472.347C472.254 70.2158 472.17 70.1365 472.095 70.0245C472.03 69.9031 471.997 69.7631 471.997 69.6045C471.997 69.5205 472.002 69.4505 472.011 69.3945C472.03 69.3291 472.048 69.2685 472.067 69.2125L476.141 63.8085ZM476.435 64.9145H476.407L473.299 69.3245H476.407L476.435 64.9145ZM486.956 64.7605C486.956 64.8911 486.914 65.0031 486.83 65.0965C486.755 65.1898 486.667 65.2598 486.564 65.3065C486.321 65.1385 486.037 64.9798 485.71 64.8305C485.383 64.6811 484.959 64.6065 484.436 64.6065C484.007 64.6065 483.61 64.6811 483.246 64.8305C482.882 64.9798 482.565 65.1991 482.294 65.4885C482.023 65.7778 481.809 66.1418 481.65 66.5805C481.501 67.0191 481.426 67.5231 481.426 68.0925C481.426 68.6711 481.501 69.1751 481.65 69.6045C481.799 70.0338 482.005 70.3931 482.266 70.6825C482.537 70.9718 482.859 71.1911 483.232 71.3405C483.605 71.4805 484.021 71.5505 484.478 71.5505C484.963 71.5505 485.383 71.4851 485.738 71.3545C486.102 71.2145 486.405 71.0511 486.648 70.8645C486.741 70.9018 486.83 70.9718 486.914 71.0745C486.998 71.1678 487.04 71.2798 487.04 71.4105C487.04 71.6065 486.928 71.7838 486.704 71.9425C486.489 72.0918 486.195 72.2225 485.822 72.3345C485.449 72.4558 484.973 72.5165 484.394 72.5165C483.806 72.5165 483.26 72.4231 482.756 72.2365C482.252 72.0498 481.813 71.7745 481.44 71.4105C481.076 71.0371 480.787 70.5751 480.572 70.0245C480.357 69.4738 480.25 68.8298 480.25 68.0925C480.25 67.3551 480.357 66.7111 480.572 66.1605C480.796 65.6005 481.095 65.1338 481.468 64.7605C481.841 64.3871 482.275 64.1071 482.77 63.9205C483.274 63.7338 483.801 63.6405 484.352 63.6405C484.735 63.6405 485.085 63.6731 485.402 63.7385C485.729 63.8038 486.004 63.8925 486.228 64.0045C486.461 64.1071 486.639 64.2285 486.76 64.3685C486.891 64.4991 486.956 64.6298 486.956 64.7605ZM453.706 88.8085C453.79 88.7898 453.883 88.7758 453.986 88.7665C454.098 88.7478 454.196 88.7385 454.28 88.7385C454.476 88.7385 454.653 88.7851 454.812 88.8785C454.97 88.9718 455.05 89.1538 455.05 89.4245V94.3245H456.45C456.478 94.3711 456.506 94.4365 456.534 94.5205C456.562 94.5951 456.576 94.6838 456.576 94.7865C456.576 95.1038 456.431 95.2625 456.142 95.2625H455.05V97.3625C455.003 97.3811 454.933 97.3998 454.84 97.4185C454.756 97.4371 454.662 97.4465 454.56 97.4465C454.158 97.4465 453.958 97.2831 453.958 96.9565V95.2625H449.912C449.818 95.2158 449.734 95.1365 449.66 95.0245C449.594 94.9031 449.562 94.7631 449.562 94.6045C449.562 94.5205 449.566 94.4505 449.576 94.3945C449.594 94.3291 449.613 94.2685 449.632 94.2125L453.706 88.8085ZM454 89.9145H453.972L450.864 94.3245H453.972L454 89.9145Z" fill="#333333"/>
<path d="M455.694 81.3917C455.722 81.4384 455.75 81.5037 455.778 81.5877C455.806 81.6624 455.82 81.7464 455.82 81.8397C455.82 81.9984 455.782 82.1244 455.708 82.2177C455.633 82.311 455.526 82.3577 455.386 82.3577H451.578V85.2697H455.204C455.232 85.3164 455.26 85.3817 455.288 85.4657C455.316 85.5404 455.33 85.6244 455.33 85.7177C455.33 85.8764 455.292 86.0024 455.218 86.0957C455.143 86.189 455.036 86.2357 454.896 86.2357H451.578V89.8897C451.531 89.9084 451.456 89.927 451.354 89.9457C451.26 89.9644 451.162 89.9737 451.06 89.9737C450.64 89.9737 450.43 89.8057 450.43 89.4697V82.0077C450.43 81.821 450.486 81.6717 450.598 81.5597C450.71 81.4477 450.859 81.3917 451.046 81.3917H455.694ZM463.618 82.3297C463.618 82.4604 463.576 82.5724 463.492 82.6657C463.418 82.759 463.329 82.829 463.226 82.8757C462.984 82.7077 462.699 82.549 462.372 82.3997C462.046 82.2504 461.621 82.1757 461.098 82.1757C460.669 82.1757 460.272 82.2504 459.908 82.3997C459.544 82.549 459.227 82.7684 458.956 83.0577C458.686 83.347 458.471 83.711 458.312 84.1497C458.163 84.5884 458.088 85.0924 458.088 85.6617C458.088 86.2404 458.163 86.7444 458.312 87.1737C458.462 87.603 458.667 87.9624 458.928 88.2517C459.199 88.541 459.521 88.7604 459.894 88.9097C460.268 89.0497 460.683 89.1197 461.14 89.1197C461.626 89.1197 462.046 89.0544 462.4 88.9237C462.764 88.7837 463.068 88.6204 463.31 88.4337C463.404 88.471 463.492 88.541 463.576 88.6437C463.66 88.737 463.702 88.849 463.702 88.9797C463.702 89.1757 463.59 89.353 463.366 89.5117C463.152 89.661 462.858 89.7917 462.484 89.9037C462.111 90.025 461.635 90.0857 461.056 90.0857C460.468 90.0857 459.922 89.9924 459.418 89.8057C458.914 89.619 458.476 89.3437 458.102 88.9797C457.738 88.6064 457.449 88.1444 457.234 87.5937C457.02 87.043 456.912 86.399 456.912 85.6617C456.912 84.9244 457.02 84.2804 457.234 83.7297C457.458 83.1697 457.757 82.703 458.13 82.3297C458.504 81.9564 458.938 81.6764 459.432 81.4897C459.936 81.303 460.464 81.2097 461.014 81.2097C461.397 81.2097 461.747 81.2424 462.064 81.3077C462.391 81.373 462.666 81.4617 462.89 81.5737C463.124 81.6764 463.301 81.7977 463.422 81.9377C463.553 82.0684 463.618 82.199 463.618 82.3297ZM470.897 81.3917C470.925 81.4384 470.953 81.5037 470.981 81.5877C471.009 81.6624 471.023 81.7464 471.023 81.8397C471.023 81.9984 470.985 82.1244 470.911 82.2177C470.836 82.311 470.729 82.3577 470.589 82.3577H466.781V85.2697H470.407C470.435 85.3164 470.463 85.3817 470.491 85.4657C470.519 85.5404 470.533 85.6244 470.533 85.7177C470.533 85.8764 470.495 86.0024 470.421 86.0957C470.346 86.189 470.239 86.2357 470.099 86.2357H466.781V89.8897C466.734 89.9084 466.659 89.927 466.557 89.9457C466.463 89.9644 466.365 89.9737 466.263 89.9737C465.843 89.9737 465.633 89.8057 465.633 89.4697V82.0077C465.633 81.821 465.689 81.6717 465.801 81.5597C465.913 81.4477 466.062 81.3917 466.249 81.3917H470.897ZM472.318 83.3237C472.196 83.277 472.094 83.207 472.01 83.1137C471.935 83.0204 471.898 82.9037 471.898 82.7637C471.898 82.6144 471.935 82.493 472.01 82.3997C472.084 82.3064 472.215 82.2224 472.402 82.1477L474.362 81.2937H474.628C474.814 81.2937 474.964 81.3497 475.076 81.4617C475.188 81.5737 475.244 81.723 475.244 81.9097V89.9177C475.188 89.9364 475.113 89.955 475.02 89.9737C474.926 90.0017 474.824 90.0157 474.712 90.0157C474.31 90.0157 474.11 89.843 474.11 89.4977V82.4837L472.318 83.3237ZM478.553 89.9037C478.367 89.9037 478.217 89.8477 478.105 89.7357C477.993 89.6237 477.937 89.4744 477.937 89.2877V82.0077C477.937 81.821 477.993 81.6717 478.105 81.5597C478.217 81.4477 478.367 81.3917 478.553 81.3917H483.201C483.229 81.4384 483.257 81.5037 483.285 81.5877C483.313 81.6624 483.327 81.7464 483.327 81.8397C483.327 81.9984 483.29 82.1244 483.215 82.2177C483.141 82.311 483.033 82.3577 482.893 82.3577H479.071V85.0597H482.767C482.795 85.1064 482.823 85.1717 482.851 85.2557C482.879 85.3304 482.893 85.4144 482.893 85.5077C482.893 85.6664 482.856 85.7924 482.781 85.8857C482.707 85.9697 482.599 86.0117 482.459 86.0117H479.071V88.9517H483.271C483.299 88.9984 483.327 89.059 483.355 89.1337C483.383 89.2084 483.397 89.297 483.397 89.3997C483.397 89.5584 483.36 89.6844 483.285 89.7777C483.211 89.8617 483.103 89.9037 482.963 89.9037H478.553ZM455.694 106.392C455.722 106.438 455.75 106.504 455.778 106.588C455.806 106.662 455.82 106.746 455.82 106.84C455.82 106.998 455.782 107.124 455.708 107.218C455.633 107.311 455.526 107.358 455.386 107.358H451.578V110.27H455.204C455.232 110.316 455.26 110.382 455.288 110.466C455.316 110.54 455.33 110.624 455.33 110.718C455.33 110.876 455.292 111.002 455.218 111.096C455.143 111.189 455.036 111.236 454.896 111.236H451.578V114.89C451.531 114.908 451.456 114.927 451.354 114.946C451.26 114.964 451.162 114.974 451.06 114.974C450.64 114.974 450.43 114.806 450.43 114.47V107.008C450.43 106.821 450.486 106.672 450.598 106.56C450.71 106.448 450.859 106.392 451.046 106.392H455.694Z" fill="#333333"/>
<path d="M35.9417 25.3614C35.9417 25.5294 35.8877 25.6734 35.7797 25.7934C35.6837 25.9134 35.5697 26.0034 35.4377 26.0634C35.1257 25.8474 34.7597 25.6434 34.3397 25.4514C33.9197 25.2594 33.3737 25.1634 32.7017 25.1634C32.1497 25.1634 31.6397 25.2594 31.1717 25.4514C30.7037 25.6434 30.2957 25.9254 29.9477 26.2974C29.5997 26.6694 29.3237 27.1374 29.1197 27.7014C28.9277 28.2654 28.8317 28.9134 28.8317 29.6454C28.8317 30.3894 28.9277 31.0374 29.1197 31.5894C29.3117 32.1414 29.5757 32.6034 29.9117 32.9754C30.2597 33.3474 30.6737 33.6294 31.1537 33.8214C31.6337 34.0014 32.1677 34.0914 32.7557 34.0914C33.3797 34.0914 33.9197 34.0074 34.3757 33.8394C34.8437 33.6594 35.2337 33.4494 35.5457 33.2094C35.6657 33.2574 35.7797 33.3474 35.8877 33.4794C35.9957 33.5994 36.0497 33.7434 36.0497 33.9114C36.0497 34.1634 35.9057 34.3914 35.6177 34.5954C35.3417 34.7874 34.9637 34.9554 34.4837 35.0994C34.0037 35.2554 33.3917 35.3334 32.6477 35.3334C31.8917 35.3334 31.1897 35.2134 30.5417 34.9734C29.8937 34.7334 29.3297 34.3794 28.8497 33.9114C28.3817 33.4314 28.0097 32.8374 27.7337 32.1294C27.4577 31.4214 27.3197 30.5934 27.3197 29.6454C27.3197 28.6974 27.4577 27.8694 27.7337 27.1614C28.0217 26.4414 28.4057 25.8414 28.8857 25.3614C29.3657 24.8814 29.9237 24.5214 30.5597 24.2814C31.2077 24.0414 31.8857 23.9214 32.5937 23.9214C33.0857 23.9214 33.5357 23.9634 33.9437 24.0474C34.3637 24.1314 34.7177 24.2454 35.0057 24.3894C35.3057 24.5214 35.5337 24.6774 35.6897 24.8574C35.8577 25.0254 35.9417 25.1934 35.9417 25.3614ZM45.5447 30.9414C45.5447 31.6134 45.4487 32.2194 45.2567 32.7594C45.0647 33.2994 44.7887 33.7614 44.4287 34.1454C44.0807 34.5294 43.6547 34.8234 43.1507 35.0274C42.6467 35.2314 42.0827 35.3334 41.4587 35.3334C40.8347 35.3334 40.2707 35.2314 39.7667 35.0274C39.2627 34.8234 38.8307 34.5294 38.4707 34.1454C38.1107 33.7614 37.8347 33.2994 37.6427 32.7594C37.4507 32.2194 37.3547 31.6134 37.3547 30.9414C37.3547 30.2694 37.4507 29.6634 37.6427 29.1234C37.8467 28.5834 38.1287 28.1214 38.4887 27.7374C38.8487 27.3534 39.2807 27.0594 39.7847 26.8554C40.2887 26.6514 40.8467 26.5494 41.4587 26.5494C42.0707 26.5494 42.6287 26.6514 43.1327 26.8554C43.6367 27.0594 44.0627 27.3534 44.4107 27.7374C44.7707 28.1214 45.0467 28.5834 45.2387 29.1234C45.4427 29.6634 45.5447 30.2694 45.5447 30.9414ZM41.4587 27.7374C40.6427 27.7374 40.0007 28.0194 39.5327 28.5834C39.0647 29.1474 38.8307 29.9334 38.8307 30.9414C38.8307 31.9614 39.0587 32.7534 39.5147 33.3174C39.9827 33.8694 40.6307 34.1454 41.4587 34.1454C42.2867 34.1454 42.9287 33.8634 43.3847 33.2994C43.8407 32.7354 44.0687 31.9494 44.0687 30.9414C44.0687 29.9334 43.8347 29.1474 43.3667 28.5834C42.9107 28.0194 42.2747 27.7374 41.4587 27.7374ZM55.4939 30.9414C55.4939 31.6134 55.3979 32.2194 55.2059 32.7594C55.0139 33.2994 54.7379 33.7614 54.3779 34.1454C54.0299 34.5294 53.6039 34.8234 53.0999 35.0274C52.5959 35.2314 52.0319 35.3334 51.4079 35.3334C50.7839 35.3334 50.2199 35.2314 49.7159 35.0274C49.2119 34.8234 48.7799 34.5294 48.4199 34.1454C48.0599 33.7614 47.7839 33.2994 47.5919 32.7594C47.3999 32.2194 47.3039 31.6134 47.3039 30.9414C47.3039 30.2694 47.3999 29.6634 47.5919 29.1234C47.7959 28.5834 48.0779 28.1214 48.4379 27.7374C48.7979 27.3534 49.2299 27.0594 49.7339 26.8554C50.2379 26.6514 50.7959 26.5494 51.4079 26.5494C52.0199 26.5494 52.5779 26.6514 53.0819 26.8554C53.5859 27.0594 54.0119 27.3534 54.3599 27.7374C54.7199 28.1214 54.9959 28.5834 55.1879 29.1234C55.3919 29.6634 55.4939 30.2694 55.4939 30.9414ZM51.4079 27.7374C50.5919 27.7374 49.9499 28.0194 49.4819 28.5834C49.0139 29.1474 48.7799 29.9334 48.7799 30.9414C48.7799 31.9614 49.0079 32.7534 49.4639 33.3174C49.9319 33.8694 50.5799 34.1454 51.4079 34.1454C52.2359 34.1454 52.8779 33.8634 53.3339 33.2994C53.7899 32.7354 54.0179 31.9494 54.0179 30.9414C54.0179 29.9334 53.7839 29.1474 53.3159 28.5834C52.8599 28.0194 52.2239 27.7374 51.4079 27.7374ZM59.3051 35.0634C59.2451 35.0874 59.1551 35.1114 59.0351 35.1354C58.9151 35.1714 58.7831 35.1894 58.6391 35.1894C58.1231 35.1894 57.8651 34.9734 57.8651 34.5414V23.4354C57.9251 23.4114 58.0151 23.3874 58.1351 23.3634C58.2671 23.3274 58.3991 23.3094 58.5311 23.3094C59.0471 23.3094 59.3051 23.5254 59.3051 23.9574V35.0634ZM69.4623 26.5494C70.0143 26.5494 70.5303 26.6394 71.0103 26.8194C71.4903 26.9994 71.9043 27.2694 72.2523 27.6294C72.6123 27.9894 72.8883 28.4454 73.0803 28.9974C73.2843 29.5494 73.3863 30.1974 73.3863 30.9414C73.3863 31.6974 73.2843 32.3514 73.0803 32.9034C72.8763 33.4554 72.5883 33.9114 72.2163 34.2714C71.8563 34.6314 71.4183 34.9014 70.9023 35.0814C70.3863 35.2494 69.8223 35.3334 69.2103 35.3334C68.6223 35.3334 68.0883 35.2614 67.6083 35.1174C67.1403 34.9854 66.7563 34.8294 66.4563 34.6494C66.2043 34.4934 66.0303 34.3434 65.9343 34.1994C65.8383 34.0434 65.7903 33.8394 65.7903 33.5874V23.4354C65.8503 23.4114 65.9403 23.3874 66.0603 23.3634C66.1923 23.3274 66.3303 23.3094 66.4743 23.3094C66.9783 23.3094 67.2303 23.5254 67.2303 23.9574V27.1794C67.4943 27.0114 67.8063 26.8674 68.1663 26.7474C68.5383 26.6154 68.9703 26.5494 69.4623 26.5494ZM69.2463 27.7374C68.8263 27.7374 68.4423 27.8154 68.0943 27.9714C67.7583 28.1154 67.4703 28.2894 67.2303 28.4934V33.5874C67.4103 33.7194 67.6683 33.8454 68.0043 33.9654C68.3523 34.0854 68.7543 34.1454 69.2103 34.1454C69.6183 34.1454 69.9843 34.0854 70.3083 33.9654C70.6443 33.8334 70.9323 33.6354 71.1723 33.3714C71.4123 33.1074 71.5983 32.7774 71.7303 32.3814C71.8623 31.9734 71.9283 31.4934 71.9283 30.9414C71.9283 30.3894 71.8623 29.9094 71.7303 29.5014C71.5983 29.0934 71.4123 28.7634 71.1723 28.5114C70.9323 28.2474 70.6443 28.0554 70.3083 27.9354C69.9843 27.8034 69.6303 27.7374 69.2463 27.7374ZM77.0732 35.0634C77.0132 35.0874 76.9232 35.1114 76.8032 35.1354C76.6832 35.1714 76.5512 35.1894 76.4072 35.1894C75.8912 35.1894 75.6332 34.9734 75.6332 34.5414V28.4394C75.6332 28.1634 75.6812 27.9474 75.7772 27.7914C75.8852 27.6234 76.0592 27.4614 76.2992 27.3054C76.6112 27.1014 77.0312 26.9274 77.5592 26.7834C78.0992 26.6274 78.7052 26.5494 79.3772 26.5494C80.3372 26.5494 80.8172 26.7894 80.8172 27.2694C80.8172 27.3894 80.7992 27.5034 80.7632 27.6114C80.7272 27.7074 80.6792 27.7914 80.6192 27.8634C80.4992 27.8394 80.3432 27.8154 80.1512 27.7914C79.9592 27.7674 79.7672 27.7554 79.5752 27.7554C79.0232 27.7554 78.5372 27.8154 78.1172 27.9354C77.6972 28.0434 77.3492 28.1754 77.0732 28.3314V35.0634ZM83.3565 31.7874C83.6805 33.3594 84.7125 34.1454 86.4525 34.1454C86.9565 34.1454 87.4125 34.0614 87.8205 33.8934C88.2285 33.7254 88.5525 33.5454 88.7925 33.3534C89.0805 33.5214 89.2245 33.7494 89.2245 34.0374C89.2245 34.2054 89.1465 34.3674 88.9905 34.5234C88.8465 34.6794 88.6425 34.8174 88.3785 34.9374C88.1265 35.0574 87.8265 35.1534 87.4785 35.2254C87.1425 35.2974 86.7765 35.3334 86.3805 35.3334C84.9885 35.3334 83.8845 34.9554 83.0685 34.1994C82.2645 33.4434 81.8625 32.3394 81.8625 30.8874C81.8625 30.2034 81.9585 29.5974 82.1505 29.0694C82.3545 28.5294 82.6305 28.0734 82.9785 27.7014C83.3385 27.3294 83.7645 27.0474 84.2565 26.8554C84.7485 26.6514 85.2825 26.5494 85.8585 26.5494C86.3985 26.5494 86.8965 26.6394 87.3525 26.8194C87.8085 26.9994 88.1985 27.2574 88.5225 27.5934C88.8585 27.9174 89.1165 28.3074 89.2965 28.7634C89.4885 29.2074 89.5845 29.6994 89.5845 30.2394C89.5845 30.5034 89.5245 30.6954 89.4045 30.8154C89.2845 30.9234 89.1165 30.9894 88.9005 31.0134L83.3565 31.7874ZM85.8405 27.7194C85.1085 27.7194 84.5025 27.9774 84.0225 28.4934C83.5425 28.9974 83.2905 29.7234 83.2665 30.6714L88.2165 29.9874C88.1565 29.3274 87.9225 28.7874 87.5145 28.3674C87.1185 27.9354 86.5605 27.7194 85.8405 27.7194ZM92.6905 31.7874C93.0145 33.3594 94.0465 34.1454 95.7865 34.1454C96.2905 34.1454 96.7465 34.0614 97.1545 33.8934C97.5625 33.7254 97.8865 33.5454 98.1265 33.3534C98.4145 33.5214 98.5585 33.7494 98.5585 34.0374C98.5585 34.2054 98.4805 34.3674 98.3245 34.5234C98.1805 34.6794 97.9765 34.8174 97.7125 34.9374C97.4605 35.0574 97.1605 35.1534 96.8125 35.2254C96.4765 35.2974 96.1105 35.3334 95.7145 35.3334C94.3225 35.3334 93.2185 34.9554 92.4025 34.1994C91.5985 33.4434 91.1965 32.3394 91.1965 30.8874C91.1965 30.2034 91.2925 29.5974 91.4845 29.0694C91.6885 28.5294 91.9645 28.0734 92.3125 27.7014C92.6725 27.3294 93.0985 27.0474 93.5905 26.8554C94.0825 26.6514 94.6165 26.5494 95.1925 26.5494C95.7325 26.5494 96.2305 26.6394 96.6865 26.8194C97.1425 26.9994 97.5325 27.2574 97.8565 27.5934C98.1925 27.9174 98.4505 28.3074 98.6305 28.7634C98.8225 29.2074 98.9185 29.6994 98.9185 30.2394C98.9185 30.5034 98.8585 30.6954 98.7385 30.8154C98.6185 30.9234 98.4505 30.9894 98.2345 31.0134L92.6905 31.7874ZM95.1745 27.7194C94.4425 27.7194 93.8365 27.9774 93.3565 28.4934C92.8765 28.9974 92.6245 29.7234 92.6005 30.6714L97.5505 29.9874C97.4905 29.3274 97.2565 28.7874 96.8485 28.3674C96.4525 27.9354 95.8945 27.7194 95.1745 27.7194ZM100.746 35.0994C100.554 34.9434 100.458 34.7334 100.458 34.4694C100.458 34.3254 100.488 34.1934 100.548 34.0734C100.608 33.9414 100.686 33.8154 100.782 33.6954L105.354 27.9714H100.728C100.692 27.9114 100.656 27.8334 100.62 27.7374C100.584 27.6294 100.566 27.5094 100.566 27.3774C100.566 26.9814 100.746 26.7834 101.106 26.7834H106.866C107.07 26.9514 107.172 27.1674 107.172 27.4314C107.172 27.6714 107.058 27.9234 106.83 28.1874L102.258 33.9294H107.136C107.172 33.9894 107.208 34.0674 107.244 34.1634C107.28 34.2594 107.298 34.3734 107.298 34.5054C107.298 34.9014 107.112 35.0994 106.74 35.0994H100.746ZM110.286 31.7874C110.61 33.3594 111.642 34.1454 113.382 34.1454C113.886 34.1454 114.342 34.0614 114.75 33.8934C115.158 33.7254 115.482 33.5454 115.722 33.3534C116.01 33.5214 116.154 33.7494 116.154 34.0374C116.154 34.2054 116.076 34.3674 115.92 34.5234C115.776 34.6794 115.572 34.8174 115.308 34.9374C115.056 35.0574 114.756 35.1534 114.408 35.2254C114.072 35.2974 113.706 35.3334 113.31 35.3334C111.918 35.3334 110.814 34.9554 109.998 34.1994C109.194 33.4434 108.792 32.3394 108.792 30.8874C108.792 30.2034 108.888 29.5974 109.08 29.0694C109.284 28.5294 109.56 28.0734 109.908 27.7014C110.268 27.3294 110.694 27.0474 111.186 26.8554C111.678 26.6514 112.212 26.5494 112.788 26.5494C113.328 26.5494 113.826 26.6394 114.282 26.8194C114.738 26.9994 115.128 27.2574 115.452 27.5934C115.788 27.9174 116.046 28.3074 116.226 28.7634C116.418 29.2074 116.514 29.6994 116.514 30.2394C116.514 30.5034 116.454 30.6954 116.334 30.8154C116.214 30.9234 116.046 30.9894 115.83 31.0134L110.286 31.7874ZM112.77 27.7194C112.038 27.7194 111.432 27.9774 110.952 28.4934C110.472 28.9974 110.22 29.7234 110.196 30.6714L115.146 29.9874C115.086 29.3274 114.852 28.7874 114.444 28.3674C114.048 27.9354 113.49 27.7194 112.77 27.7194Z" fill="#333333"/>
<g clip-path="url(#clip0)">
<path d="M476.32 162.728C476.178 160.309 474.184 158.375 471.78 158.375C470.32 158.375 468.907 159.091 468.032 160.259C468.012 160.248 467.99 160.241 467.97 160.231C467.917 160.206 467.863 160.181 467.808 160.159C467.777 160.147 467.746 160.136 467.715 160.125C467.661 160.106 467.606 160.089 467.549 160.074C467.518 160.066 467.488 160.057 467.456 160.05C467.396 160.036 467.334 160.026 467.272 160.016C467.245 160.012 467.218 160.007 467.191 160.004C467.101 159.994 467.011 159.988 466.919 159.988C465.585 159.988 464.5 161.073 464.5 162.407C464.5 162.441 464.503 162.475 464.505 162.509C463.387 163.119 462.619 164.395 462.619 165.673C462.619 167.577 464.168 169.126 466.071 169.126H467.457C467.606 169.126 467.726 169.006 467.726 168.857C467.726 168.709 467.606 168.588 467.457 168.588H466.071C464.464 168.588 463.157 167.281 463.157 165.673C463.157 164.557 463.884 163.398 464.886 162.918L465.038 162.845V162.676C465.038 162.643 465.04 162.611 465.042 162.577L465.045 162.528L465.042 162.476C465.04 162.453 465.038 162.43 465.038 162.407C465.038 161.37 465.882 160.525 466.919 160.525C467.002 160.525 467.084 160.533 467.166 160.543C467.187 160.546 467.208 160.55 467.228 160.553C467.3 160.565 467.371 160.581 467.44 160.601C467.45 160.603 467.46 160.605 467.469 160.608C467.546 160.631 467.62 160.661 467.693 160.694C467.712 160.703 467.731 160.712 467.75 160.721C467.814 160.753 467.878 160.788 467.939 160.828C468.456 161.163 468.801 161.745 468.801 162.407C468.801 162.555 468.921 162.676 469.069 162.676C469.218 162.676 469.338 162.555 469.338 162.407C469.338 161.667 469.003 161.004 468.478 160.56C469.249 159.552 470.518 158.913 471.78 158.913C473.861 158.913 475.59 160.562 475.771 162.645C475.496 162.626 475.085 162.616 474.673 162.679C474.526 162.701 474.426 162.838 474.448 162.985C474.468 163.118 474.583 163.213 474.713 163.213C474.727 163.213 474.74 163.212 474.754 163.21C475.352 163.12 475.976 163.205 476.013 163.21C477.264 163.447 478.207 164.6 478.207 165.893C478.207 167.379 476.998 168.588 475.512 168.588H474.445C474.296 168.588 474.176 168.709 474.176 168.857C474.176 169.006 474.296 169.126 474.445 169.126H475.512C477.295 169.126 478.745 167.676 478.745 165.893C478.745 164.418 477.716 163.095 476.32 162.728Z" fill="#333333"/>
<path d="M472.91 169.473L471.219 171.165V165.632C471.219 165.483 471.099 165.363 470.95 165.363C470.802 165.363 470.681 165.483 470.681 165.632V171.165L468.99 169.473C468.885 169.368 468.715 169.368 468.61 169.473C468.505 169.579 468.505 169.748 468.61 169.854L470.76 172.003C470.785 172.028 470.814 172.048 470.848 172.062C470.88 172.075 470.915 172.082 470.95 172.082C470.985 172.082 471.02 172.075 471.053 172.062C471.086 172.048 471.116 172.028 471.14 172.003L473.29 169.854C473.395 169.748 473.395 169.579 473.29 169.473C473.185 169.368 473.015 169.368 472.91 169.473Z" fill="#333333"/>
</g>
<path d="M470.682 130.306C470.49 130.306 470.305 130.233 470.161 130.101C469.616 129.603 469.091 129.135 468.628 128.722L468.625 128.72C467.267 127.51 466.093 126.465 465.277 125.435C464.364 124.284 463.939 123.193 463.939 122C463.939 120.842 464.319 119.773 465.009 118.991C465.707 118.2 466.665 117.764 467.707 117.764C468.485 117.764 469.198 118.021 469.826 118.528C470.142 118.784 470.429 119.098 470.682 119.463C470.935 119.098 471.222 118.784 471.539 118.528C472.167 118.021 472.879 117.764 473.658 117.764C474.699 117.764 475.657 118.2 476.355 118.991C477.045 119.773 477.425 120.842 477.425 122C477.425 123.193 477 124.284 476.088 125.435C475.271 126.465 474.098 127.51 472.74 128.72C472.276 129.134 471.75 129.602 471.204 130.101C471.059 130.233 470.874 130.306 470.682 130.306ZM467.707 118.589C466.889 118.589 466.137 118.931 465.59 119.551C465.035 120.18 464.729 121.05 464.729 122C464.729 123.003 465.086 123.9 465.885 124.908C466.658 125.883 467.807 126.906 469.137 128.092L469.14 128.094C469.605 128.508 470.132 128.978 470.681 129.48C471.233 128.977 471.761 128.507 472.227 128.092C473.558 126.906 474.707 125.883 475.48 124.908C476.279 123.9 476.635 123.003 476.635 122C476.635 121.05 476.33 120.18 475.775 119.551C475.228 118.931 474.476 118.589 473.658 118.589C473.058 118.589 472.508 118.789 472.022 119.181C471.589 119.532 471.287 119.974 471.111 120.284C471.02 120.443 470.86 120.539 470.682 120.539C470.505 120.539 470.345 120.443 470.254 120.284C470.077 119.974 469.776 119.532 469.342 119.181C468.856 118.789 468.306 118.589 467.707 118.589Z" fill="#333333"/>
<line x1="463.959" y1="101.854" x2="477.406" y2="101.854" stroke="#E0DDDD"/>
<line x1="463.959" y1="142.062" x2="477.406" y2="142.062" stroke="#E0DDDD"/>
<g filter="url(#filter1_d)">
<rect x="40.1035" y="85.1022" width="497.108" height="195.037" rx="20" fill="white"/>
</g>
<path d="M53.834 136.095C53.834 129.467 59.2066 124.095 65.834 124.095H448.604C455.231 124.095 460.604 129.467 460.604 136.095V254.422C460.604 261.05 455.231 266.422 448.604 266.422H65.834C59.2066 266.422 53.834 261.05 53.834 254.422V136.095Z" fill="url(#paint1_linear)"/>
<path d="M483.882 144.25C483.882 143.653 483.789 143.144 483.602 142.724C483.425 142.295 483.177 141.945 482.86 141.674C482.552 141.404 482.188 141.208 481.768 141.086C481.357 140.956 480.914 140.89 480.438 140.89C480.139 140.89 479.878 140.9 479.654 140.918C479.439 140.937 479.239 140.965 479.052 141.002V147.666C479.276 147.722 479.514 147.76 479.766 147.778C480.027 147.797 480.293 147.806 480.564 147.806C481.665 147.806 482.491 147.508 483.042 146.91C483.602 146.313 483.882 145.426 483.882 144.25ZM485.044 144.25C485.044 145.016 484.937 145.683 484.722 146.252C484.517 146.812 484.218 147.279 483.826 147.652C483.443 148.026 482.977 148.306 482.426 148.492C481.875 148.67 481.259 148.758 480.578 148.758C480.279 148.758 479.943 148.744 479.57 148.716C479.197 148.698 478.842 148.637 478.506 148.534C478.114 148.413 477.918 148.198 477.918 147.89V140.694C477.918 140.545 477.955 140.433 478.03 140.358C478.105 140.274 478.221 140.209 478.38 140.162C478.669 140.069 478.996 140.008 479.36 139.98C479.724 139.952 480.088 139.938 480.452 139.938C481.133 139.938 481.754 140.032 482.314 140.218C482.883 140.396 483.369 140.666 483.77 141.03C484.171 141.385 484.484 141.833 484.708 142.374C484.932 142.906 485.044 143.532 485.044 144.25ZM487.667 148.604C487.48 148.604 487.331 148.548 487.219 148.436C487.107 148.324 487.051 148.175 487.051 147.988V140.708C487.051 140.522 487.107 140.372 487.219 140.26C487.331 140.148 487.48 140.092 487.667 140.092H492.315C492.343 140.139 492.371 140.204 492.399 140.288C492.427 140.363 492.441 140.447 492.441 140.54C492.441 140.699 492.403 140.825 492.329 140.918C492.254 141.012 492.147 141.058 492.007 141.058H488.185V143.76H491.881C491.909 143.807 491.937 143.872 491.965 143.956C491.993 144.031 492.007 144.115 492.007 144.208C492.007 144.367 491.969 144.493 491.895 144.586C491.82 144.67 491.713 144.712 491.573 144.712H488.185V147.652H492.385C492.413 147.699 492.441 147.76 492.469 147.834C492.497 147.909 492.511 147.998 492.511 148.1C492.511 148.259 492.473 148.385 492.399 148.478C492.324 148.562 492.217 148.604 492.077 148.604H487.667ZM499.752 140.092C499.78 140.139 499.808 140.204 499.836 140.288C499.864 140.363 499.878 140.447 499.878 140.54C499.878 140.699 499.841 140.825 499.766 140.918C499.692 141.012 499.584 141.058 499.444 141.058H495.636V143.97H499.262C499.29 144.017 499.318 144.082 499.346 144.166C499.374 144.241 499.388 144.325 499.388 144.418C499.388 144.577 499.351 144.703 499.276 144.796C499.202 144.89 499.094 144.936 498.954 144.936H495.636V148.59C495.59 148.609 495.515 148.628 495.412 148.646C495.319 148.665 495.221 148.674 495.118 148.674C494.698 148.674 494.488 148.506 494.488 148.17V140.708C494.488 140.522 494.544 140.372 494.656 140.26C494.768 140.148 494.918 140.092 495.104 140.092H499.752ZM506.394 140.092C506.609 140.214 506.716 140.4 506.716 140.652C506.716 140.839 506.665 141.035 506.562 141.24L503.048 148.66C502.992 148.67 502.936 148.674 502.88 148.674C502.833 148.674 502.782 148.674 502.726 148.674C502.539 148.674 502.381 148.632 502.25 148.548C502.129 148.455 502.068 148.329 502.068 148.17C502.068 148.058 502.087 147.951 502.124 147.848C502.171 147.736 502.231 147.61 502.306 147.47L505.47 141.044H501.046C501.018 140.998 500.99 140.937 500.962 140.862C500.934 140.788 500.92 140.699 500.92 140.596C500.92 140.438 500.957 140.316 501.032 140.232C501.107 140.139 501.214 140.092 501.354 140.092H506.394ZM513.506 140.092C513.534 140.139 513.562 140.204 513.59 140.288C513.618 140.363 513.632 140.447 513.632 140.54C513.632 140.699 513.595 140.825 513.52 140.918C513.445 141.012 513.338 141.058 513.198 141.058H509.39V143.97H513.016C513.044 144.017 513.072 144.082 513.1 144.166C513.128 144.241 513.142 144.325 513.142 144.418C513.142 144.577 513.105 144.703 513.03 144.796C512.955 144.89 512.848 144.936 512.708 144.936H509.39V148.59C509.343 148.609 509.269 148.628 509.166 148.646C509.073 148.665 508.975 148.674 508.872 148.674C508.452 148.674 508.242 148.506 508.242 148.17V140.708C508.242 140.522 508.298 140.372 508.41 140.26C508.522 140.148 508.671 140.092 508.858 140.092H513.506ZM520.739 140.092C520.767 140.139 520.795 140.204 520.823 140.288C520.851 140.363 520.865 140.447 520.865 140.54C520.865 140.699 520.827 140.825 520.753 140.918C520.678 141.012 520.571 141.058 520.431 141.058H516.623V143.97H520.249C520.277 144.017 520.305 144.082 520.333 144.166C520.361 144.241 520.375 144.325 520.375 144.418C520.375 144.577 520.337 144.703 520.263 144.796C520.188 144.89 520.081 144.936 519.941 144.936H516.623V148.59C516.576 148.609 516.501 148.628 516.399 148.646C516.305 148.665 516.207 148.674 516.105 148.674C515.685 148.674 515.475 148.506 515.475 148.17V140.708C515.475 140.522 515.531 140.372 515.643 140.26C515.755 140.148 515.904 140.092 516.091 140.092H520.739Z" fill="#333333"/>
<path d="M483.182 157.662C483.21 157.708 483.238 157.774 483.266 157.858C483.294 157.932 483.308 158.016 483.308 158.11C483.308 158.268 483.271 158.394 483.196 158.488C483.121 158.581 483.014 158.628 482.874 158.628H479.066V161.54H482.692C482.72 161.586 482.748 161.652 482.776 161.736C482.804 161.81 482.818 161.894 482.818 161.988C482.818 162.146 482.781 162.272 482.706 162.366C482.631 162.459 482.524 162.506 482.384 162.506H479.066V166.16C479.019 166.178 478.945 166.197 478.842 166.216C478.749 166.234 478.651 166.244 478.548 166.244C478.128 166.244 477.918 166.076 477.918 165.74V158.278C477.918 158.091 477.974 157.942 478.086 157.83C478.198 157.718 478.347 157.662 478.534 157.662H483.182ZM484.73 163.92C484.73 163.63 484.772 163.369 484.856 163.136C484.95 162.902 485.071 162.697 485.22 162.52C485.37 162.333 485.542 162.179 485.738 162.058C485.934 161.927 486.14 161.82 486.354 161.736C485.906 161.568 485.556 161.325 485.304 161.008C485.062 160.69 484.94 160.289 484.94 159.804C484.94 159.449 485.01 159.132 485.15 158.852C485.29 158.562 485.491 158.32 485.752 158.124C486.014 157.918 486.326 157.764 486.69 157.662C487.054 157.55 487.456 157.494 487.894 157.494C488.809 157.494 489.528 157.704 490.05 158.124C490.582 158.534 490.848 159.104 490.848 159.832C490.848 160.326 490.708 160.732 490.428 161.05C490.148 161.358 489.789 161.586 489.35 161.736C489.584 161.82 489.803 161.927 490.008 162.058C490.214 162.188 490.391 162.342 490.54 162.52C490.699 162.697 490.82 162.907 490.904 163.15C490.998 163.383 491.044 163.644 491.044 163.934C491.044 164.316 490.965 164.657 490.806 164.956C490.657 165.254 490.442 165.506 490.162 165.712C489.892 165.917 489.56 166.076 489.168 166.188C488.786 166.3 488.361 166.356 487.894 166.356C486.933 166.356 486.163 166.146 485.584 165.726C485.015 165.296 484.73 164.694 484.73 163.92ZM489.924 163.892C489.924 163.388 489.728 162.982 489.336 162.674C488.954 162.366 488.426 162.17 487.754 162.086C487.176 162.188 486.714 162.394 486.368 162.702C486.023 163.01 485.85 163.411 485.85 163.906C485.85 164.382 486.028 164.755 486.382 165.026C486.746 165.287 487.25 165.418 487.894 165.418C488.51 165.418 489 165.292 489.364 165.04C489.738 164.778 489.924 164.396 489.924 163.892ZM486.06 159.818C486.06 160.079 486.112 160.303 486.214 160.49C486.317 160.667 486.457 160.816 486.634 160.938C486.821 161.059 487.036 161.157 487.278 161.232C487.521 161.297 487.782 161.344 488.062 161.372C488.622 161.232 489.038 161.04 489.308 160.798C489.588 160.555 489.728 160.233 489.728 159.832C489.728 159.384 489.565 159.038 489.238 158.796C488.912 158.553 488.464 158.432 487.894 158.432C487.334 158.432 486.886 158.558 486.55 158.81C486.224 159.062 486.06 159.398 486.06 159.818ZM498.385 157.662C498.413 157.708 498.441 157.774 498.469 157.858C498.497 157.932 498.511 158.016 498.511 158.11C498.511 158.268 498.474 158.394 498.399 158.488C498.324 158.581 498.217 158.628 498.077 158.628H494.269V161.54H497.895C497.923 161.586 497.951 161.652 497.979 161.736C498.007 161.81 498.021 161.894 498.021 161.988C498.021 162.146 497.984 162.272 497.909 162.366C497.834 162.459 497.727 162.506 497.587 162.506H494.269V166.16C494.222 166.178 494.148 166.197 494.045 166.216C493.952 166.234 493.854 166.244 493.751 166.244C493.331 166.244 493.121 166.076 493.121 165.74V158.278C493.121 158.091 493.177 157.942 493.289 157.83C493.401 157.718 493.55 157.662 493.737 157.662H498.385ZM499.933 163.92C499.933 163.63 499.975 163.369 500.059 163.136C500.153 162.902 500.274 162.697 500.423 162.52C500.573 162.333 500.745 162.179 500.941 162.058C501.137 161.927 501.343 161.82 501.557 161.736C501.109 161.568 500.759 161.325 500.507 161.008C500.265 160.69 500.143 160.289 500.143 159.804C500.143 159.449 500.213 159.132 500.353 158.852C500.493 158.562 500.694 158.32 500.955 158.124C501.217 157.918 501.529 157.764 501.893 157.662C502.257 157.55 502.659 157.494 503.097 157.494C504.012 157.494 504.731 157.704 505.253 158.124C505.785 158.534 506.051 159.104 506.051 159.832C506.051 160.326 505.911 160.732 505.631 161.05C505.351 161.358 504.992 161.586 504.553 161.736C504.787 161.82 505.006 161.927 505.211 162.058C505.417 162.188 505.594 162.342 505.743 162.52C505.902 162.697 506.023 162.907 506.107 163.15C506.201 163.383 506.247 163.644 506.247 163.934C506.247 164.316 506.168 164.657 506.009 164.956C505.86 165.254 505.645 165.506 505.365 165.712C505.095 165.917 504.763 166.076 504.371 166.188C503.989 166.3 503.564 166.356 503.097 166.356C502.136 166.356 501.366 166.146 500.787 165.726C500.218 165.296 499.933 164.694 499.933 163.92ZM505.127 163.892C505.127 163.388 504.931 162.982 504.539 162.674C504.157 162.366 503.629 162.17 502.957 162.086C502.379 162.188 501.917 162.394 501.571 162.702C501.226 163.01 501.053 163.411 501.053 163.906C501.053 164.382 501.231 164.755 501.585 165.026C501.949 165.287 502.453 165.418 503.097 165.418C503.713 165.418 504.203 165.292 504.567 165.04C504.941 164.778 505.127 164.396 505.127 163.892ZM501.263 159.818C501.263 160.079 501.315 160.303 501.417 160.49C501.52 160.667 501.66 160.816 501.837 160.938C502.024 161.059 502.239 161.157 502.481 161.232C502.724 161.297 502.985 161.344 503.265 161.372C503.825 161.232 504.241 161.04 504.511 160.798C504.791 160.555 504.931 160.233 504.931 159.832C504.931 159.384 504.768 159.038 504.441 158.796C504.115 158.553 503.667 158.432 503.097 158.432C502.537 158.432 502.089 158.558 501.753 158.81C501.427 159.062 501.263 159.398 501.263 159.818ZM513.588 157.662C513.616 157.708 513.644 157.774 513.672 157.858C513.7 157.932 513.714 158.016 513.714 158.11C513.714 158.268 513.677 158.394 513.602 158.488C513.527 158.581 513.42 158.628 513.28 158.628H509.472V161.54H513.098C513.126 161.586 513.154 161.652 513.182 161.736C513.21 161.81 513.224 161.894 513.224 161.988C513.224 162.146 513.187 162.272 513.112 162.366C513.037 162.459 512.93 162.506 512.79 162.506H509.472V166.16C509.425 166.178 509.351 166.197 509.248 166.216C509.155 166.234 509.057 166.244 508.954 166.244C508.534 166.244 508.324 166.076 508.324 165.74V158.278C508.324 158.091 508.38 157.942 508.492 157.83C508.604 157.718 508.753 157.662 508.94 157.662H513.588ZM515.137 163.92C515.137 163.63 515.179 163.369 515.263 163.136C515.356 162.902 515.477 162.697 515.627 162.52C515.776 162.333 515.949 162.179 516.145 162.058C516.341 161.927 516.546 161.82 516.761 161.736C516.313 161.568 515.963 161.325 515.711 161.008C515.468 160.69 515.347 160.289 515.347 159.804C515.347 159.449 515.417 159.132 515.557 158.852C515.697 158.562 515.897 158.32 516.159 158.124C516.42 157.918 516.733 157.764 517.097 157.662C517.461 157.55 517.862 157.494 518.301 157.494C519.215 157.494 519.934 157.704 520.457 158.124C520.989 158.534 521.255 159.104 521.255 159.832C521.255 160.326 521.115 160.732 520.835 161.05C520.555 161.358 520.195 161.586 519.757 161.736C519.99 161.82 520.209 161.927 520.415 162.058C520.62 162.188 520.797 162.342 520.947 162.52C521.105 162.697 521.227 162.907 521.311 163.15C521.404 163.383 521.451 163.644 521.451 163.934C521.451 164.316 521.371 164.657 521.213 164.956C521.063 165.254 520.849 165.506 520.569 165.712C520.298 165.917 519.967 166.076 519.575 166.188C519.192 166.3 518.767 166.356 518.301 166.356C517.339 166.356 516.569 166.146 515.991 165.726C515.421 165.296 515.137 164.694 515.137 163.92ZM520.331 163.892C520.331 163.388 520.135 162.982 519.743 162.674C519.36 162.366 518.833 162.17 518.161 162.086C517.582 162.188 517.12 162.394 516.775 162.702C516.429 163.01 516.257 163.411 516.257 163.906C516.257 164.382 516.434 164.755 516.789 165.026C517.153 165.287 517.657 165.418 518.301 165.418C518.917 165.418 519.407 165.292 519.771 165.04C520.144 164.778 520.331 164.396 520.331 163.892ZM516.467 159.818C516.467 160.079 516.518 160.303 516.621 160.49C516.723 160.667 516.863 160.816 517.041 160.938C517.227 161.059 517.442 161.157 517.685 161.232C517.927 161.297 518.189 161.344 518.469 161.372C519.029 161.232 519.444 161.04 519.715 160.798C519.995 160.555 520.135 160.233 520.135 159.832C520.135 159.384 519.971 159.038 519.645 158.796C519.318 158.553 518.87 158.432 518.301 158.432C517.741 158.432 517.293 158.558 516.957 158.81C516.63 159.062 516.467 159.398 516.467 159.818Z" fill="#333333"/>
<path d="M63.1079 105.771C63.1079 105.003 62.9879 104.349 62.7479 103.809C62.5199 103.257 62.2019 102.807 61.7939 102.459C61.3979 102.111 60.9299 101.859 60.3899 101.703C59.8619 101.535 59.2919 101.451 58.6799 101.451C58.2959 101.451 57.9599 101.463 57.6719 101.487C57.3959 101.511 57.1379 101.547 56.8979 101.595V110.163C57.1859 110.235 57.4919 110.283 57.8159 110.307C58.1519 110.331 58.4939 110.343 58.8419 110.343C60.2579 110.343 61.3199 109.959 62.0279 109.191C62.7479 108.423 63.1079 107.283 63.1079 105.771ZM64.6019 105.771C64.6019 106.755 64.4639 107.613 64.1879 108.345C63.9239 109.065 63.5399 109.665 63.0359 110.145C62.5439 110.625 61.9439 110.985 61.2359 111.225C60.5279 111.453 59.7359 111.567 58.8599 111.567C58.4759 111.567 58.0439 111.549 57.5639 111.513C57.0839 111.489 56.6279 111.411 56.1959 111.279C55.6919 111.123 55.4399 110.847 55.4399 110.451V101.199C55.4399 101.007 55.4879 100.863 55.5839 100.767C55.6799 100.659 55.8299 100.575 56.0339 100.515C56.4059 100.395 56.8259 100.317 57.2939 100.281C57.7619 100.245 58.2299 100.227 58.6979 100.227C59.5739 100.227 60.3719 100.347 61.0919 100.587C61.8239 100.815 62.4479 101.163 62.9639 101.631C63.4799 102.087 63.8819 102.663 64.1699 103.359C64.4579 104.043 64.6019 104.847 64.6019 105.771ZM66.9301 103.089C66.9901 103.065 67.0801 103.041 67.2001 103.017C67.3321 102.981 67.4701 102.963 67.6141 102.963C68.1181 102.963 68.3701 103.185 68.3701 103.629V108.255C68.3701 109.035 68.5741 109.593 68.9821 109.929C69.3901 110.253 69.9541 110.415 70.6741 110.415C71.1541 110.415 71.5621 110.367 71.8981 110.271C72.2341 110.163 72.4981 110.055 72.6901 109.947V103.089C72.7501 103.065 72.8401 103.041 72.9601 103.017C73.0921 102.981 73.2241 102.963 73.3561 102.963C73.8721 102.963 74.1301 103.185 74.1301 103.629V109.893C74.1301 110.145 74.0941 110.349 74.0221 110.505C73.9621 110.649 73.8061 110.793 73.5541 110.937C73.2781 111.093 72.8941 111.243 72.4021 111.387C71.9221 111.531 71.3401 111.603 70.6561 111.603C69.4561 111.603 68.5321 111.339 67.8841 110.811C67.2481 110.283 66.9301 109.455 66.9301 108.327V103.089ZM82.6946 109.155C82.6946 109.923 82.4126 110.523 81.8486 110.955C81.2846 111.387 80.4686 111.603 79.4006 111.603C78.9446 111.603 78.5246 111.561 78.1406 111.477C77.7566 111.405 77.4266 111.309 77.1506 111.189C76.8866 111.057 76.6766 110.913 76.5206 110.757C76.3766 110.589 76.3046 110.421 76.3046 110.253C76.3046 110.109 76.3406 109.971 76.4126 109.839C76.4966 109.707 76.6166 109.593 76.7726 109.497C77.0966 109.737 77.4746 109.953 77.9066 110.145C78.3386 110.325 78.8306 110.415 79.3826 110.415C80.6306 110.415 81.2546 109.995 81.2546 109.155C81.2546 108.471 80.8406 108.027 80.0126 107.823L78.5186 107.427C77.7866 107.235 77.2526 106.959 76.9166 106.599C76.5806 106.227 76.4126 105.753 76.4126 105.177C76.4126 104.865 76.4726 104.565 76.5926 104.277C76.7246 103.989 76.9226 103.737 77.1866 103.521C77.4506 103.305 77.7746 103.137 78.1586 103.017C78.5546 102.885 79.0166 102.819 79.5446 102.819C80.3846 102.819 81.0626 102.945 81.5786 103.197C82.0946 103.437 82.3526 103.719 82.3526 104.043C82.3526 104.199 82.3106 104.337 82.2266 104.457C82.1546 104.577 82.0526 104.667 81.9206 104.727C81.7046 104.583 81.3986 104.427 81.0026 104.259C80.6066 104.091 80.1386 104.007 79.5986 104.007C79.0586 104.007 78.6266 104.109 78.3026 104.313C77.9906 104.517 77.8346 104.805 77.8346 105.177C77.8346 105.453 77.9246 105.687 78.1046 105.879C78.2846 106.071 78.5846 106.215 79.0046 106.311L80.2466 106.617C81.0626 106.821 81.6746 107.127 82.0826 107.535C82.4906 107.931 82.6946 108.471 82.6946 109.155ZM87.7213 111.603C86.8813 111.603 86.1973 111.417 85.6693 111.045C85.1533 110.673 84.8953 110.055 84.8953 109.191V100.641C84.9553 100.617 85.0453 100.593 85.1653 100.569C85.2973 100.533 85.4353 100.515 85.5793 100.515C86.0833 100.515 86.3353 100.731 86.3353 101.163V103.233H89.2873C89.3233 103.293 89.3593 103.377 89.3953 103.485C89.4313 103.581 89.4493 103.689 89.4493 103.809C89.4493 104.217 89.2693 104.421 88.9093 104.421H86.3353V109.101C86.3353 109.581 86.4673 109.923 86.7313 110.127C87.0073 110.319 87.3913 110.415 87.8833 110.415C88.0873 110.415 88.3153 110.379 88.5673 110.307C88.8193 110.235 89.0293 110.151 89.1973 110.055C89.2693 110.127 89.3353 110.217 89.3953 110.325C89.4553 110.433 89.4853 110.559 89.4853 110.703C89.4853 110.967 89.3293 111.183 89.0173 111.351C88.7053 111.519 88.2733 111.603 87.7213 111.603ZM93.3369 109.515C93.1809 109.227 93.0009 108.861 92.7969 108.417C92.5929 107.973 92.3769 107.475 92.1489 106.923C91.9329 106.371 91.7109 105.789 91.4829 105.177C91.2549 104.553 91.0389 103.923 90.8349 103.287C90.9189 103.167 91.0269 103.071 91.1589 102.999C91.3029 102.927 91.4529 102.891 91.6089 102.891C91.8129 102.891 91.9749 102.945 92.0949 103.053C92.2269 103.161 92.3409 103.341 92.4369 103.593C92.7969 104.613 93.1689 105.615 93.5529 106.599C93.9489 107.583 94.3929 108.615 94.8849 109.695H94.9569C95.1489 109.323 95.3469 108.873 95.5509 108.345C95.7549 107.805 95.9529 107.235 96.1449 106.635C96.3489 106.035 96.5349 105.429 96.7029 104.817C96.8829 104.193 97.0389 103.599 97.1709 103.035C97.2549 102.999 97.3449 102.969 97.4409 102.945C97.5369 102.909 97.6509 102.891 97.7829 102.891C97.9869 102.891 98.1549 102.945 98.2869 103.053C98.4189 103.149 98.4849 103.299 98.4849 103.503C98.4849 103.743 98.4009 104.181 98.2329 104.817C98.0649 105.453 97.8429 106.167 97.5669 106.959C97.3029 107.751 96.9969 108.567 96.6489 109.407C96.3009 110.235 95.9469 110.973 95.5869 111.621C95.0229 112.641 94.5129 113.421 94.0569 113.961C93.6129 114.513 93.1989 114.789 92.8149 114.789C92.5389 114.789 92.3229 114.717 92.1669 114.573C92.0229 114.429 91.9329 114.261 91.8969 114.069C92.0889 113.901 92.3049 113.685 92.5449 113.421C92.7849 113.157 93.0249 112.869 93.2649 112.557C93.5049 112.257 93.7329 111.945 93.9489 111.621C94.1649 111.297 94.3449 110.985 94.4889 110.685C94.2849 110.625 94.0929 110.523 93.9129 110.379C93.7449 110.223 93.5529 109.935 93.3369 109.515ZM107.763 102.819C108.315 102.819 108.831 102.909 109.311 103.089C109.791 103.269 110.205 103.539 110.553 103.899C110.913 104.259 111.189 104.715 111.381 105.267C111.585 105.819 111.687 106.467 111.687 107.211C111.687 107.967 111.585 108.621 111.381 109.173C111.177 109.725 110.889 110.181 110.517 110.541C110.157 110.901 109.719 111.171 109.203 111.351C108.687 111.519 108.123 111.603 107.511 111.603C106.923 111.603 106.389 111.531 105.909 111.387C105.441 111.255 105.057 111.099 104.757 110.919C104.505 110.763 104.331 110.613 104.235 110.469C104.139 110.313 104.091 110.109 104.091 109.857V99.7053C104.151 99.6813 104.241 99.6573 104.361 99.6333C104.493 99.5973 104.631 99.5793 104.775 99.5793C105.279 99.5793 105.531 99.7953 105.531 100.227V103.449C105.795 103.281 106.107 103.137 106.467 103.017C106.839 102.885 107.271 102.819 107.763 102.819ZM107.547 104.007C107.127 104.007 106.743 104.085 106.395 104.241C106.059 104.385 105.771 104.559 105.531 104.763V109.857C105.711 109.989 105.969 110.115 106.305 110.235C106.653 110.355 107.055 110.415 107.511 110.415C107.919 110.415 108.285 110.355 108.609 110.235C108.945 110.103 109.233 109.905 109.473 109.641C109.713 109.377 109.899 109.047 110.031 108.651C110.163 108.243 110.229 107.763 110.229 107.211C110.229 106.659 110.163 106.179 110.031 105.771C109.899 105.363 109.713 105.033 109.473 104.781C109.233 104.517 108.945 104.325 108.609 104.205C108.285 104.073 107.931 104.007 107.547 104.007ZM115.518 111.333C115.458 111.357 115.368 111.381 115.248 111.405C115.128 111.441 114.996 111.459 114.852 111.459C114.336 111.459 114.078 111.243 114.078 110.811V99.7053C114.138 99.6813 114.228 99.6573 114.348 99.6333C114.48 99.5973 114.612 99.5793 114.744 99.5793C115.26 99.5793 115.518 99.7953 115.518 100.227V111.333ZM118.364 103.089C118.424 103.065 118.514 103.041 118.634 103.017C118.766 102.981 118.904 102.963 119.048 102.963C119.552 102.963 119.804 103.185 119.804 103.629V108.255C119.804 109.035 120.008 109.593 120.416 109.929C120.824 110.253 121.388 110.415 122.108 110.415C122.588 110.415 122.996 110.367 123.332 110.271C123.668 110.163 123.932 110.055 124.124 109.947V103.089C124.184 103.065 124.274 103.041 124.394 103.017C124.526 102.981 124.658 102.963 124.79 102.963C125.306 102.963 125.564 103.185 125.564 103.629V109.893C125.564 110.145 125.528 110.349 125.456 110.505C125.396 110.649 125.24 110.793 124.988 110.937C124.712 111.093 124.328 111.243 123.836 111.387C123.356 111.531 122.774 111.603 122.09 111.603C120.89 111.603 119.966 111.339 119.318 110.811C118.682 110.283 118.364 109.455 118.364 108.327V103.089ZM129.286 108.057C129.61 109.629 130.642 110.415 132.382 110.415C132.886 110.415 133.342 110.331 133.75 110.163C134.158 109.995 134.482 109.815 134.722 109.623C135.01 109.791 135.154 110.019 135.154 110.307C135.154 110.475 135.076 110.637 134.92 110.793C134.776 110.949 134.572 111.087 134.308 111.207C134.056 111.327 133.756 111.423 133.408 111.495C133.072 111.567 132.706 111.603 132.31 111.603C130.918 111.603 129.814 111.225 128.998 110.469C128.194 109.713 127.792 108.609 127.792 107.157C127.792 106.473 127.888 105.867 128.08 105.339C128.284 104.799 128.56 104.343 128.908 103.971C129.268 103.599 129.694 103.317 130.186 103.125C130.678 102.921 131.212 102.819 131.788 102.819C132.328 102.819 132.826 102.909 133.282 103.089C133.738 103.269 134.128 103.527 134.452 103.863C134.788 104.187 135.046 104.577 135.226 105.033C135.418 105.477 135.514 105.969 135.514 106.509C135.514 106.773 135.454 106.965 135.334 107.085C135.214 107.193 135.046 107.259 134.83 107.283L129.286 108.057ZM131.77 103.989C131.038 103.989 130.432 104.247 129.952 104.763C129.472 105.267 129.22 105.993 129.196 106.941L134.146 106.257C134.086 105.597 133.852 105.057 133.444 104.637C133.048 104.205 132.49 103.989 131.77 103.989Z" fill="#333333"/>
<g clip-path="url(#clip1)">
<path d="M503.812 238.998C503.67 236.579 501.676 234.645 499.272 234.645C497.812 234.645 496.399 235.361 495.524 236.529C495.504 236.518 495.483 236.511 495.462 236.501C495.409 236.476 495.355 236.451 495.3 236.429C495.269 236.417 495.239 236.406 495.208 236.395C495.153 236.376 495.098 236.359 495.041 236.344C495.01 236.336 494.98 236.327 494.949 236.32C494.888 236.306 494.826 236.296 494.764 236.286C494.737 236.282 494.71 236.277 494.683 236.274C494.594 236.264 494.503 236.258 494.412 236.258C493.078 236.258 491.993 237.343 491.993 238.677C491.993 238.711 491.995 238.745 491.997 238.779C490.879 239.388 490.111 240.665 490.111 241.943C490.111 243.847 491.66 245.396 493.564 245.396H494.949C495.098 245.396 495.218 245.276 495.218 245.127C495.218 244.978 495.098 244.858 494.949 244.858H493.564C491.956 244.858 490.649 243.551 490.649 241.943C490.649 240.827 491.376 239.668 492.378 239.188L492.53 239.115V238.945C492.53 238.913 492.532 238.88 492.534 238.847L492.537 238.798L492.534 238.746C492.532 238.723 492.53 238.7 492.53 238.677C492.53 237.64 493.374 236.795 494.412 236.795C494.495 236.795 494.577 236.803 494.658 236.813C494.679 236.816 494.7 236.82 494.721 236.823C494.792 236.835 494.863 236.85 494.933 236.871C494.942 236.873 494.952 236.875 494.961 236.878C495.038 236.901 495.112 236.931 495.186 236.964C495.205 236.973 495.223 236.982 495.242 236.991C495.307 237.023 495.37 237.058 495.431 237.098C495.949 237.433 496.293 238.015 496.293 238.677C496.293 238.825 496.413 238.945 496.562 238.945C496.71 238.945 496.83 238.825 496.83 238.677C496.83 237.937 496.496 237.274 495.97 236.83C496.741 235.822 498.01 235.183 499.272 235.183C501.353 235.183 503.082 236.832 503.263 238.915C502.988 238.896 502.577 238.886 502.165 238.949C502.019 238.971 501.918 239.108 501.94 239.255C501.96 239.388 502.075 239.483 502.205 239.483C502.219 239.483 502.233 239.482 502.246 239.48C502.845 239.389 503.468 239.474 503.505 239.48C504.756 239.717 505.7 240.87 505.7 242.163C505.7 243.649 504.49 244.858 503.004 244.858H501.937C501.788 244.858 501.668 244.978 501.668 245.127C501.668 245.276 501.788 245.396 501.937 245.396H503.004C504.787 245.396 506.237 243.946 506.237 242.163C506.237 240.688 505.209 239.365 503.812 238.998Z" fill="#333333"/>
<path d="M500.402 245.743L498.711 247.435V241.902C498.711 241.753 498.591 241.633 498.442 241.633C498.294 241.633 498.174 241.753 498.174 241.902V247.435L496.482 245.743C496.377 245.638 496.207 245.638 496.102 245.743C495.997 245.848 495.997 246.018 496.102 246.123L498.252 248.273C498.277 248.298 498.307 248.318 498.34 248.332C498.373 248.345 498.407 248.352 498.442 248.352C498.477 248.352 498.512 248.345 498.545 248.332C498.578 248.318 498.608 248.298 498.633 248.273L500.783 246.123C500.888 246.018 500.888 245.848 500.783 245.743C500.677 245.638 500.508 245.638 500.402 245.743Z" fill="#333333"/>
</g>
<path d="M498.173 206.576C497.981 206.576 497.795 206.503 497.651 206.371C497.106 205.873 496.581 205.405 496.118 204.992L496.115 204.99C494.757 203.78 493.584 202.735 492.767 201.705C491.855 200.554 491.43 199.463 491.43 198.27C491.43 197.112 491.81 196.043 492.5 195.261C493.198 194.469 494.155 194.034 495.197 194.034C495.975 194.034 496.688 194.291 497.316 194.798C497.633 195.054 497.92 195.368 498.173 195.733C498.426 195.368 498.712 195.054 499.029 194.798C499.657 194.291 500.37 194.034 501.148 194.034C502.19 194.034 503.148 194.469 503.846 195.261C504.536 196.043 504.915 197.112 504.915 198.27C504.915 199.463 504.49 200.554 503.578 201.705C502.762 202.735 501.588 203.78 500.23 204.99C499.766 205.403 499.24 205.872 498.694 206.371C498.55 206.503 498.364 206.576 498.173 206.576ZM495.197 194.859C494.379 194.859 493.627 195.201 493.08 195.821C492.525 196.45 492.22 197.32 492.22 198.27C492.22 199.273 492.576 200.17 493.375 201.178C494.148 202.153 495.297 203.176 496.628 204.362L496.63 204.364C497.095 204.778 497.623 205.248 498.171 205.75C498.723 205.247 499.252 204.777 499.718 204.362C501.048 203.176 502.197 202.153 502.97 201.178C503.769 200.17 504.126 199.273 504.126 198.27C504.126 197.32 503.82 196.45 503.265 195.821C502.718 195.201 501.966 194.859 501.148 194.859C500.549 194.859 499.998 195.059 499.512 195.451C499.079 195.802 498.778 196.244 498.601 196.554C498.51 196.713 498.35 196.808 498.173 196.808C497.995 196.808 497.835 196.713 497.744 196.554C497.567 196.244 497.266 195.802 496.833 195.451C496.347 195.059 495.796 194.859 495.197 194.859Z" fill="#333333"/>
<line x1="491.449" y1="178.124" x2="504.896" y2="178.124" stroke="#E0DDDD"/>
<line x1="491.449" y1="218.332" x2="504.896" y2="218.332" stroke="#E0DDDD"/>
<g filter="url(#filter2_d)">
<rect x="71.459" y="168.419" width="497.108" height="195.037" rx="20" fill="white"/>
</g>
<path d="M85.1895 219.411C85.1895 212.784 90.562 207.411 97.1895 207.411H479.959C486.586 207.411 491.959 212.784 491.959 219.411V337.739C491.959 344.366 486.586 349.739 479.959 349.739H97.1894C90.562 349.739 85.1895 344.366 85.1895 337.739V219.411Z" fill="url(#paint2_linear)"/>
<path d="M515.237 227.567C515.237 226.97 515.144 226.461 514.957 226.041C514.78 225.612 514.533 225.262 514.215 224.991C513.907 224.721 513.543 224.525 513.123 224.403C512.713 224.273 512.269 224.207 511.793 224.207C511.495 224.207 511.233 224.217 511.009 224.235C510.795 224.254 510.594 224.282 510.407 224.319V230.983C510.631 231.039 510.869 231.077 511.121 231.095C511.383 231.114 511.649 231.123 511.919 231.123C513.021 231.123 513.847 230.825 514.397 230.227C514.957 229.63 515.237 228.743 515.237 227.567ZM516.399 227.567C516.399 228.333 516.292 229 516.077 229.569C515.872 230.129 515.573 230.596 515.181 230.969C514.799 231.343 514.332 231.623 513.781 231.809C513.231 231.987 512.615 232.075 511.933 232.075C511.635 232.075 511.299 232.061 510.925 232.033C510.552 232.015 510.197 231.954 509.861 231.851C509.469 231.73 509.273 231.515 509.273 231.207V224.011C509.273 223.862 509.311 223.75 509.385 223.675C509.46 223.591 509.577 223.526 509.735 223.479C510.025 223.386 510.351 223.325 510.715 223.297C511.079 223.269 511.443 223.255 511.807 223.255C512.489 223.255 513.109 223.349 513.669 223.535C514.239 223.713 514.724 223.983 515.125 224.347C515.527 224.702 515.839 225.15 516.063 225.691C516.287 226.223 516.399 226.849 516.399 227.567ZM519.022 231.921C518.835 231.921 518.686 231.865 518.574 231.753C518.462 231.641 518.406 231.492 518.406 231.305V224.025C518.406 223.839 518.462 223.689 518.574 223.577C518.686 223.465 518.835 223.409 519.022 223.409H523.67C523.698 223.456 523.726 223.521 523.754 223.605C523.782 223.68 523.796 223.764 523.796 223.857C523.796 224.016 523.759 224.142 523.684 224.235C523.609 224.329 523.502 224.375 523.362 224.375H519.54V227.077H523.236C523.264 227.124 523.292 227.189 523.32 227.273C523.348 227.348 523.362 227.432 523.362 227.525C523.362 227.684 523.325 227.81 523.25 227.903C523.175 227.987 523.068 228.029 522.928 228.029H519.54V230.969H523.74C523.768 231.016 523.796 231.077 523.824 231.151C523.852 231.226 523.866 231.315 523.866 231.417C523.866 231.576 523.829 231.702 523.754 231.795C523.679 231.879 523.572 231.921 523.432 231.921H519.022ZM531.108 223.409C531.136 223.456 531.164 223.521 531.192 223.605C531.22 223.68 531.234 223.764 531.234 223.857C531.234 224.016 531.196 224.142 531.122 224.235C531.047 224.329 530.94 224.375 530.8 224.375H526.992V227.287H530.618C530.646 227.334 530.674 227.399 530.702 227.483C530.73 227.558 530.744 227.642 530.744 227.735C530.744 227.894 530.706 228.02 530.632 228.113C530.557 228.207 530.45 228.253 530.31 228.253H526.992V231.907C526.945 231.926 526.87 231.945 526.768 231.963C526.674 231.982 526.576 231.991 526.474 231.991C526.054 231.991 525.844 231.823 525.844 231.487V224.025C525.844 223.839 525.9 223.689 526.012 223.577C526.124 223.465 526.273 223.409 526.46 223.409H531.108ZM537.749 223.409C537.964 223.531 538.071 223.717 538.071 223.969C538.071 224.156 538.02 224.352 537.917 224.557L534.403 231.977C534.347 231.987 534.291 231.991 534.235 231.991C534.189 231.991 534.137 231.991 534.081 231.991C533.895 231.991 533.736 231.949 533.605 231.865C533.484 231.772 533.423 231.646 533.423 231.487C533.423 231.375 533.442 231.268 533.479 231.165C533.526 231.053 533.587 230.927 533.661 230.787L536.825 224.361H532.401C532.373 224.315 532.345 224.254 532.317 224.179C532.289 224.105 532.275 224.016 532.275 223.913C532.275 223.755 532.313 223.633 532.387 223.549C532.462 223.456 532.569 223.409 532.709 223.409H537.749ZM544.862 223.409C544.89 223.456 544.918 223.521 544.946 223.605C544.974 223.68 544.988 223.764 544.988 223.857C544.988 224.016 544.95 224.142 544.876 224.235C544.801 224.329 544.694 224.375 544.554 224.375H540.746V227.287H544.372C544.4 227.334 544.428 227.399 544.456 227.483C544.484 227.558 544.498 227.642 544.498 227.735C544.498 227.894 544.46 228.02 544.386 228.113C544.311 228.207 544.204 228.253 544.064 228.253H540.746V231.907C540.699 231.926 540.624 231.945 540.522 231.963C540.428 231.982 540.33 231.991 540.228 231.991C539.808 231.991 539.598 231.823 539.598 231.487V224.025C539.598 223.839 539.654 223.689 539.766 223.577C539.878 223.465 540.027 223.409 540.214 223.409H544.862ZM552.094 223.409C552.122 223.456 552.15 223.521 552.178 223.605C552.206 223.68 552.22 223.764 552.22 223.857C552.22 224.016 552.183 224.142 552.108 224.235C552.033 224.329 551.926 224.375 551.786 224.375H547.978V227.287H551.604C551.632 227.334 551.66 227.399 551.688 227.483C551.716 227.558 551.73 227.642 551.73 227.735C551.73 227.894 551.693 228.02 551.618 228.113C551.543 228.207 551.436 228.253 551.296 228.253H547.978V231.907C547.931 231.926 547.857 231.945 547.754 231.963C547.661 231.982 547.563 231.991 547.46 231.991C547.04 231.991 546.83 231.823 546.83 231.487V224.025C546.83 223.839 546.886 223.689 546.998 223.577C547.11 223.465 547.259 223.409 547.446 223.409H552.094Z" fill="#333333"/>
<path d="M514.537 240.978C514.565 241.025 514.593 241.09 514.621 241.174C514.649 241.249 514.663 241.333 514.663 241.426C514.663 241.585 514.626 241.711 514.551 241.804C514.477 241.898 514.369 241.944 514.229 241.944H510.421V244.856H514.047C514.075 244.903 514.103 244.968 514.131 245.052C514.159 245.127 514.173 245.211 514.173 245.304C514.173 245.463 514.136 245.589 514.061 245.682C513.987 245.776 513.879 245.822 513.739 245.822H510.421V249.476C510.375 249.495 510.3 249.514 510.197 249.532C510.104 249.551 510.006 249.56 509.903 249.56C509.483 249.56 509.273 249.392 509.273 249.056V241.594C509.273 241.408 509.329 241.258 509.441 241.146C509.553 241.034 509.703 240.978 509.889 240.978H514.537ZM516.086 247.236C516.086 246.947 516.128 246.686 516.212 246.452C516.305 246.219 516.426 246.014 516.576 245.836C516.725 245.65 516.898 245.496 517.094 245.374C517.29 245.244 517.495 245.136 517.71 245.052C517.262 244.884 516.912 244.642 516.66 244.324C516.417 244.007 516.296 243.606 516.296 243.12C516.296 242.766 516.366 242.448 516.506 242.168C516.646 241.879 516.846 241.636 517.108 241.44C517.369 241.235 517.682 241.081 518.046 240.978C518.41 240.866 518.811 240.81 519.25 240.81C520.164 240.81 520.883 241.02 521.406 241.44C521.938 241.851 522.204 242.42 522.204 243.148C522.204 243.643 522.064 244.049 521.784 244.366C521.504 244.674 521.144 244.903 520.706 245.052C520.939 245.136 521.158 245.244 521.364 245.374C521.569 245.505 521.746 245.659 521.896 245.836C522.054 246.014 522.176 246.224 522.26 246.466C522.353 246.7 522.4 246.961 522.4 247.25C522.4 247.633 522.32 247.974 522.162 248.272C522.012 248.571 521.798 248.823 521.518 249.028C521.247 249.234 520.916 249.392 520.524 249.504C520.141 249.616 519.716 249.672 519.25 249.672C518.288 249.672 517.518 249.462 516.94 249.042C516.37 248.613 516.086 248.011 516.086 247.236ZM521.28 247.208C521.28 246.704 521.084 246.298 520.692 245.99C520.309 245.682 519.782 245.486 519.11 245.402C518.531 245.505 518.069 245.71 517.724 246.018C517.378 246.326 517.206 246.728 517.206 247.222C517.206 247.698 517.383 248.072 517.738 248.342C518.102 248.604 518.606 248.734 519.25 248.734C519.866 248.734 520.356 248.608 520.72 248.356C521.093 248.095 521.28 247.712 521.28 247.208ZM517.416 243.134C517.416 243.396 517.467 243.62 517.57 243.806C517.672 243.984 517.812 244.133 517.99 244.254C518.176 244.376 518.391 244.474 518.634 244.548C518.876 244.614 519.138 244.66 519.418 244.688C519.978 244.548 520.393 244.357 520.664 244.114C520.944 243.872 521.084 243.55 521.084 243.148C521.084 242.7 520.92 242.355 520.594 242.112C520.267 241.87 519.819 241.748 519.25 241.748C518.69 241.748 518.242 241.874 517.906 242.126C517.579 242.378 517.416 242.714 517.416 243.134ZM529.74 240.978C529.768 241.025 529.796 241.09 529.824 241.174C529.852 241.249 529.866 241.333 529.866 241.426C529.866 241.585 529.829 241.711 529.754 241.804C529.68 241.898 529.572 241.944 529.432 241.944H525.624V244.856H529.25C529.278 244.903 529.306 244.968 529.334 245.052C529.362 245.127 529.376 245.211 529.376 245.304C529.376 245.463 529.339 245.589 529.264 245.682C529.19 245.776 529.082 245.822 528.942 245.822H525.624V249.476C525.578 249.495 525.503 249.514 525.4 249.532C525.307 249.551 525.209 249.56 525.106 249.56C524.686 249.56 524.476 249.392 524.476 249.056V241.594C524.476 241.408 524.532 241.258 524.644 241.146C524.756 241.034 524.906 240.978 525.092 240.978H529.74ZM531.289 247.236C531.289 246.947 531.331 246.686 531.415 246.452C531.508 246.219 531.63 246.014 531.779 245.836C531.928 245.65 532.101 245.496 532.297 245.374C532.493 245.244 532.698 245.136 532.913 245.052C532.465 244.884 532.115 244.642 531.863 244.324C531.62 244.007 531.499 243.606 531.499 243.12C531.499 242.766 531.569 242.448 531.709 242.168C531.849 241.879 532.05 241.636 532.311 241.44C532.572 241.235 532.885 241.081 533.249 240.978C533.613 240.866 534.014 240.81 534.453 240.81C535.368 240.81 536.086 241.02 536.609 241.44C537.141 241.851 537.407 242.42 537.407 243.148C537.407 243.643 537.267 244.049 536.987 244.366C536.707 244.674 536.348 244.903 535.909 245.052C536.142 245.136 536.362 245.244 536.567 245.374C536.772 245.505 536.95 245.659 537.099 245.836C537.258 246.014 537.379 246.224 537.463 246.466C537.556 246.7 537.603 246.961 537.603 247.25C537.603 247.633 537.524 247.974 537.365 248.272C537.216 248.571 537.001 248.823 536.721 249.028C536.45 249.234 536.119 249.392 535.727 249.504C535.344 249.616 534.92 249.672 534.453 249.672C533.492 249.672 532.722 249.462 532.143 249.042C531.574 248.613 531.289 248.011 531.289 247.236ZM536.483 247.208C536.483 246.704 536.287 246.298 535.895 245.99C535.512 245.682 534.985 245.486 534.313 245.402C533.734 245.505 533.272 245.71 532.927 246.018C532.582 246.326 532.409 246.728 532.409 247.222C532.409 247.698 532.586 248.072 532.941 248.342C533.305 248.604 533.809 248.734 534.453 248.734C535.069 248.734 535.559 248.608 535.923 248.356C536.296 248.095 536.483 247.712 536.483 247.208ZM532.619 243.134C532.619 243.396 532.67 243.62 532.773 243.806C532.876 243.984 533.016 244.133 533.193 244.254C533.38 244.376 533.594 244.474 533.837 244.548C534.08 244.614 534.341 244.66 534.621 244.688C535.181 244.548 535.596 244.357 535.867 244.114C536.147 243.872 536.287 243.55 536.287 243.148C536.287 242.7 536.124 242.355 535.797 242.112C535.47 241.87 535.022 241.748 534.453 241.748C533.893 241.748 533.445 241.874 533.109 242.126C532.782 242.378 532.619 242.714 532.619 243.134ZM544.944 240.978C544.972 241.025 545 241.09 545.028 241.174C545.056 241.249 545.07 241.333 545.07 241.426C545.07 241.585 545.032 241.711 544.958 241.804C544.883 241.898 544.776 241.944 544.636 241.944H540.828V244.856H544.454C544.482 244.903 544.51 244.968 544.538 245.052C544.566 245.127 544.58 245.211 544.58 245.304C544.58 245.463 544.542 245.589 544.468 245.682C544.393 245.776 544.286 245.822 544.146 245.822H540.828V249.476C540.781 249.495 540.706 249.514 540.604 249.532C540.51 249.551 540.412 249.56 540.31 249.56C539.89 249.56 539.68 249.392 539.68 249.056V241.594C539.68 241.408 539.736 241.258 539.848 241.146C539.96 241.034 540.109 240.978 540.296 240.978H544.944ZM546.492 247.236C546.492 246.947 546.534 246.686 546.618 246.452C546.711 246.219 546.833 246.014 546.982 245.836C547.131 245.65 547.304 245.496 547.5 245.374C547.696 245.244 547.901 245.136 548.116 245.052C547.668 244.884 547.318 244.642 547.066 244.324C546.823 244.007 546.702 243.606 546.702 243.12C546.702 242.766 546.772 242.448 546.912 242.168C547.052 241.879 547.253 241.636 547.514 241.44C547.775 241.235 548.088 241.081 548.452 240.978C548.816 240.866 549.217 240.81 549.656 240.81C550.571 240.81 551.289 241.02 551.812 241.44C552.344 241.851 552.61 242.42 552.61 243.148C552.61 243.643 552.47 244.049 552.19 244.366C551.91 244.674 551.551 244.903 551.112 245.052C551.345 245.136 551.565 245.244 551.77 245.374C551.975 245.505 552.153 245.659 552.302 245.836C552.461 246.014 552.582 246.224 552.666 246.466C552.759 246.7 552.806 246.961 552.806 247.25C552.806 247.633 552.727 247.974 552.568 248.272C552.419 248.571 552.204 248.823 551.924 249.028C551.653 249.234 551.322 249.392 550.93 249.504C550.547 249.616 550.123 249.672 549.656 249.672C548.695 249.672 547.925 249.462 547.346 249.042C546.777 248.613 546.492 248.011 546.492 247.236ZM551.686 247.208C551.686 246.704 551.49 246.298 551.098 245.99C550.715 245.682 550.188 245.486 549.516 245.402C548.937 245.505 548.475 245.71 548.13 246.018C547.785 246.326 547.612 246.728 547.612 247.222C547.612 247.698 547.789 248.072 548.144 248.342C548.508 248.604 549.012 248.734 549.656 248.734C550.272 248.734 550.762 248.608 551.126 248.356C551.499 248.095 551.686 247.712 551.686 247.208ZM547.822 243.134C547.822 243.396 547.873 243.62 547.976 243.806C548.079 243.984 548.219 244.133 548.396 244.254C548.583 244.376 548.797 244.474 549.04 244.548C549.283 244.614 549.544 244.66 549.824 244.688C550.384 244.548 550.799 244.357 551.07 244.114C551.35 243.872 551.49 243.55 551.49 243.148C551.49 242.7 551.327 242.355 551 242.112C550.673 241.87 550.225 241.748 549.656 241.748C549.096 241.748 548.648 241.874 548.312 242.126C547.985 242.378 547.822 242.714 547.822 243.134Z" fill="#333333"/>
<path d="M89.8194 193.696C90.6234 193.696 91.2294 193.516 91.6374 193.156C92.0574 192.784 92.2674 192.31 92.2674 191.734C92.2674 191.23 92.1054 190.822 91.7814 190.51C91.4694 190.198 90.9714 189.94 90.2874 189.736L88.7214 189.268C87.9534 189.04 87.3474 188.704 86.9034 188.26C86.4714 187.816 86.2554 187.216 86.2554 186.46C86.2554 186.004 86.3394 185.596 86.5074 185.236C86.6874 184.864 86.9394 184.552 87.2634 184.3C87.5874 184.048 87.9714 183.856 88.4154 183.724C88.8714 183.58 89.3814 183.508 89.9454 183.508C90.4254 183.508 90.8694 183.55 91.2774 183.634C91.6974 183.706 92.0574 183.814 92.3574 183.958C92.6694 184.09 92.9094 184.24 93.0774 184.408C93.2454 184.576 93.3294 184.75 93.3294 184.93C93.3294 185.098 93.2874 185.242 93.2034 185.362C93.1194 185.482 93.0114 185.578 92.8794 185.65C92.5674 185.41 92.1594 185.2 91.6554 185.02C91.1634 184.84 90.6114 184.75 89.9994 184.75C89.2914 184.75 88.7334 184.9 88.3254 185.2C87.9294 185.5 87.7314 185.92 87.7314 186.46C87.7314 186.88 87.8754 187.222 88.1634 187.486C88.4514 187.75 88.9314 187.978 89.6034 188.17L90.7014 188.494C91.6494 188.77 92.3934 189.16 92.9334 189.664C93.4854 190.156 93.7614 190.846 93.7614 191.734C93.7614 192.682 93.4194 193.45 92.7354 194.038C92.0514 194.626 91.0794 194.92 89.8194 194.92C89.2674 194.92 88.7634 194.872 88.3074 194.776C87.8634 194.68 87.4794 194.554 87.1554 194.398C86.8434 194.242 86.5974 194.074 86.4174 193.894C86.2494 193.702 86.1654 193.516 86.1654 193.336C86.1654 193.132 86.2254 192.964 86.3454 192.832C86.4774 192.688 86.6274 192.586 86.7954 192.526C86.9274 192.658 87.0894 192.796 87.2814 192.94C87.4734 193.072 87.6954 193.198 87.9474 193.318C88.1994 193.426 88.4814 193.516 88.7934 193.588C89.1054 193.66 89.4474 193.696 89.8194 193.696ZM101.027 188.494C100.859 189.058 100.685 189.628 100.505 190.204C100.337 190.78 100.163 191.332 99.9835 191.86C99.8035 192.388 99.6295 192.886 99.4615 193.354C99.2935 193.822 99.1375 194.236 98.9935 194.596C98.8975 194.656 98.7895 194.704 98.6695 194.74C98.5495 194.776 98.3875 194.794 98.1835 194.794C97.9915 194.794 97.8115 194.758 97.6435 194.686C97.4875 194.626 97.3795 194.524 97.3195 194.38C97.1755 194.08 97.0015 193.612 96.7975 192.976C96.6055 192.34 96.4015 191.644 96.1855 190.888C95.9815 190.12 95.7835 189.352 95.5915 188.584C95.4115 187.804 95.2615 187.126 95.1415 186.55C95.2255 186.466 95.3275 186.388 95.4475 186.316C95.5795 186.244 95.7355 186.208 95.9155 186.208C96.1435 186.208 96.3115 186.274 96.4195 186.406C96.5275 186.526 96.6115 186.724 96.6715 187C96.7795 187.504 96.9055 188.08 97.0495 188.728C97.1935 189.364 97.3375 189.988 97.4815 190.6C97.6255 191.212 97.7575 191.77 97.8775 192.274C98.0095 192.778 98.1055 193.15 98.1655 193.39H98.2375C98.3095 193.174 98.4115 192.85 98.5435 192.418C98.6875 191.986 98.8495 191.494 99.0295 190.942C99.2095 190.378 99.4075 189.772 99.6235 189.124C99.8395 188.476 100.055 187.828 100.271 187.18C100.487 187.06 100.745 187 101.045 187C101.489 187 101.765 187.156 101.873 187.468C102.089 188.092 102.293 188.716 102.485 189.34C102.689 189.952 102.875 190.522 103.043 191.05C103.211 191.578 103.355 192.052 103.475 192.472C103.595 192.88 103.691 193.192 103.763 193.408H103.853C104.129 192.328 104.429 191.182 104.753 189.97C105.077 188.758 105.341 187.558 105.545 186.37C105.713 186.262 105.917 186.208 106.157 186.208C106.361 186.208 106.523 186.256 106.643 186.352C106.763 186.448 106.823 186.598 106.823 186.802C106.823 186.934 106.781 187.192 106.697 187.576C106.625 187.948 106.523 188.386 106.391 188.89C106.259 189.382 106.109 189.916 105.941 190.492C105.785 191.056 105.623 191.608 105.455 192.148C105.287 192.676 105.125 193.162 104.969 193.606C104.825 194.038 104.699 194.368 104.591 194.596C104.531 194.644 104.429 194.686 104.285 194.722C104.153 194.77 103.997 194.794 103.817 194.794C103.589 194.794 103.397 194.764 103.241 194.704C103.097 194.656 103.001 194.572 102.953 194.452C102.821 194.128 102.677 193.744 102.521 193.3C102.377 192.856 102.221 192.376 102.053 191.86C101.885 191.332 101.711 190.78 101.531 190.204C101.363 189.628 101.195 189.058 101.027 188.494ZM109.753 191.374C110.077 192.946 111.109 193.732 112.849 193.732C113.353 193.732 113.809 193.648 114.217 193.48C114.625 193.312 114.949 193.132 115.189 192.94C115.477 193.108 115.621 193.336 115.621 193.624C115.621 193.792 115.543 193.954 115.387 194.11C115.243 194.266 115.039 194.404 114.775 194.524C114.523 194.644 114.223 194.74 113.875 194.812C113.539 194.884 113.173 194.92 112.777 194.92C111.385 194.92 110.281 194.542 109.465 193.786C108.661 193.03 108.259 191.926 108.259 190.474C108.259 189.79 108.355 189.184 108.547 188.656C108.751 188.116 109.027 187.66 109.375 187.288C109.735 186.916 110.161 186.634 110.653 186.442C111.145 186.238 111.679 186.136 112.255 186.136C112.795 186.136 113.293 186.226 113.749 186.406C114.205 186.586 114.595 186.844 114.919 187.18C115.255 187.504 115.513 187.894 115.693 188.35C115.885 188.794 115.981 189.286 115.981 189.826C115.981 190.09 115.921 190.282 115.801 190.402C115.681 190.51 115.513 190.576 115.297 190.6L109.753 191.374ZM112.237 187.306C111.505 187.306 110.899 187.564 110.419 188.08C109.939 188.584 109.687 189.31 109.663 190.258L114.613 189.574C114.553 188.914 114.319 188.374 113.911 187.954C113.515 187.522 112.957 187.306 112.237 187.306ZM119.087 191.374C119.411 192.946 120.443 193.732 122.183 193.732C122.687 193.732 123.143 193.648 123.551 193.48C123.959 193.312 124.283 193.132 124.523 192.94C124.811 193.108 124.955 193.336 124.955 193.624C124.955 193.792 124.877 193.954 124.721 194.11C124.577 194.266 124.373 194.404 124.109 194.524C123.857 194.644 123.557 194.74 123.209 194.812C122.873 194.884 122.507 194.92 122.111 194.92C120.719 194.92 119.615 194.542 118.799 193.786C117.995 193.03 117.593 191.926 117.593 190.474C117.593 189.79 117.689 189.184 117.881 188.656C118.085 188.116 118.361 187.66 118.709 187.288C119.069 186.916 119.495 186.634 119.987 186.442C120.479 186.238 121.013 186.136 121.589 186.136C122.129 186.136 122.627 186.226 123.083 186.406C123.539 186.586 123.929 186.844 124.253 187.18C124.589 187.504 124.847 187.894 125.027 188.35C125.219 188.794 125.315 189.286 125.315 189.826C125.315 190.09 125.255 190.282 125.135 190.402C125.015 190.51 124.847 190.576 124.631 190.6L119.087 191.374ZM121.571 187.306C120.839 187.306 120.233 187.564 119.753 188.08C119.273 188.584 119.021 189.31 118.997 190.258L123.947 189.574C123.887 188.914 123.653 188.374 123.245 187.954C122.849 187.522 122.291 187.306 121.571 187.306ZM130.239 194.92C129.399 194.92 128.715 194.734 128.187 194.362C127.671 193.99 127.413 193.372 127.413 192.508V183.958C127.473 183.934 127.563 183.91 127.683 183.886C127.815 183.85 127.953 183.832 128.097 183.832C128.601 183.832 128.853 184.048 128.853 184.48V186.55H131.805C131.841 186.61 131.877 186.694 131.913 186.802C131.949 186.898 131.967 187.006 131.967 187.126C131.967 187.534 131.787 187.738 131.427 187.738H128.853V192.418C128.853 192.898 128.985 193.24 129.249 193.444C129.525 193.636 129.909 193.732 130.401 193.732C130.605 193.732 130.833 193.696 131.085 193.624C131.337 193.552 131.547 193.468 131.715 193.372C131.787 193.444 131.853 193.534 131.913 193.642C131.973 193.75 132.003 193.876 132.003 194.02C132.003 194.284 131.847 194.5 131.535 194.668C131.223 194.836 130.791 194.92 130.239 194.92ZM148.244 189.034C148.244 188.446 148.076 188.014 147.74 187.738C147.404 187.462 146.954 187.324 146.39 187.324C145.61 187.324 144.914 187.6 144.302 188.152C144.374 188.392 144.41 188.65 144.41 188.926V194.65C144.35 194.674 144.254 194.698 144.122 194.722C144.002 194.758 143.876 194.776 143.744 194.776C143.228 194.776 142.97 194.56 142.97 194.128V189.034C142.97 188.446 142.802 188.014 142.466 187.738C142.13 187.462 141.674 187.324 141.098 187.324C140.714 187.324 140.348 187.384 140 187.504C139.664 187.624 139.376 187.762 139.136 187.918V194.65C139.076 194.674 138.986 194.698 138.866 194.722C138.746 194.758 138.614 194.776 138.47 194.776C137.954 194.776 137.696 194.56 137.696 194.128V187.99C137.696 187.75 137.744 187.552 137.84 187.396C137.948 187.228 138.128 187.06 138.38 186.892C138.704 186.688 139.112 186.514 139.604 186.37C140.108 186.214 140.612 186.136 141.116 186.136C141.704 186.136 142.226 186.226 142.682 186.406C143.138 186.574 143.486 186.808 143.726 187.108C144.038 186.832 144.428 186.604 144.896 186.424C145.364 186.232 145.898 186.136 146.498 186.136C147.47 186.136 148.244 186.37 148.82 186.838C149.396 187.294 149.684 188.002 149.684 188.962V194.65C149.624 194.674 149.528 194.698 149.396 194.722C149.276 194.758 149.15 194.776 149.018 194.776C148.502 194.776 148.244 194.56 148.244 194.128V189.034ZM153.921 194.65C153.861 194.674 153.771 194.698 153.651 194.722C153.531 194.758 153.399 194.776 153.255 194.776C152.739 194.776 152.481 194.56 152.481 194.128V186.406C152.541 186.382 152.631 186.358 152.751 186.334C152.883 186.298 153.021 186.28 153.165 186.28C153.669 186.28 153.921 186.502 153.921 186.946V194.65ZM152.265 183.742C152.265 183.49 152.349 183.28 152.517 183.112C152.697 182.932 152.925 182.842 153.201 182.842C153.477 182.842 153.699 182.932 153.867 183.112C154.035 183.28 154.119 183.49 154.119 183.742C154.119 183.994 154.035 184.21 153.867 184.39C153.699 184.558 153.477 184.642 153.201 184.642C152.925 184.642 152.697 184.558 152.517 184.39C152.349 184.21 152.265 183.994 152.265 183.742ZM162.493 189.268C162.493 188.596 162.301 188.104 161.917 187.792C161.545 187.48 161.041 187.324 160.405 187.324C159.925 187.324 159.499 187.384 159.127 187.504C158.755 187.624 158.437 187.762 158.173 187.918V194.65C158.113 194.674 158.023 194.698 157.903 194.722C157.783 194.758 157.651 194.776 157.507 194.776C156.991 194.776 156.733 194.56 156.733 194.128V187.99C156.733 187.738 156.781 187.534 156.877 187.378C156.985 187.21 157.165 187.048 157.417 186.892C157.729 186.7 158.143 186.526 158.659 186.37C159.175 186.214 159.757 186.136 160.405 186.136C161.497 186.136 162.355 186.382 162.979 186.874C163.615 187.366 163.933 188.14 163.933 189.196V194.65C163.873 194.674 163.777 194.698 163.645 194.722C163.525 194.758 163.399 194.776 163.267 194.776C162.751 194.776 162.493 194.56 162.493 194.128V189.268ZM169.473 194.92C168.633 194.92 167.949 194.734 167.421 194.362C166.905 193.99 166.647 193.372 166.647 192.508V183.958C166.707 183.934 166.797 183.91 166.917 183.886C167.049 183.85 167.187 183.832 167.331 183.832C167.835 183.832 168.087 184.048 168.087 184.48V186.55H171.039C171.075 186.61 171.111 186.694 171.147 186.802C171.183 186.898 171.201 187.006 171.201 187.126C171.201 187.534 171.021 187.738 170.661 187.738H168.087V192.418C168.087 192.898 168.219 193.24 168.483 193.444C168.759 193.636 169.143 193.732 169.635 193.732C169.839 193.732 170.067 193.696 170.319 193.624C170.571 193.552 170.781 193.468 170.949 193.372C171.021 193.444 171.087 193.534 171.147 193.642C171.207 193.75 171.237 193.876 171.237 194.02C171.237 194.284 171.081 194.5 170.769 194.668C170.457 194.836 170.025 194.92 169.473 194.92Z" fill="#333333"/>
<g clip-path="url(#clip2)">
<path d="M535.167 322.315C535.025 319.896 533.031 317.962 530.627 317.962C529.168 317.962 527.755 318.678 526.879 319.846C526.859 319.835 526.838 319.828 526.818 319.818C526.764 319.792 526.71 319.768 526.655 319.746C526.625 319.734 526.594 319.723 526.563 319.712C526.509 319.693 526.453 319.676 526.397 319.661C526.366 319.652 526.335 319.644 526.304 319.637C526.244 319.623 526.182 319.613 526.119 319.603C526.092 319.599 526.066 319.594 526.038 319.591C525.949 319.581 525.859 319.575 525.767 319.575C524.433 319.575 523.348 320.66 523.348 321.994C523.348 322.028 523.35 322.062 523.353 322.096C522.235 322.705 521.467 323.982 521.467 325.26C521.467 327.164 523.015 328.713 524.919 328.713H526.305C526.453 328.713 526.573 328.593 526.573 328.444C526.573 328.295 526.453 328.175 526.305 328.175H524.919C523.312 328.175 522.004 326.868 522.004 325.26C522.004 324.144 522.731 322.985 523.733 322.505L523.886 322.432V322.262C523.886 322.23 523.888 322.197 523.89 322.164L523.893 322.115L523.889 322.062C523.888 322.04 523.886 322.017 523.886 321.994C523.886 320.956 524.73 320.112 525.767 320.112C525.85 320.112 525.932 320.12 526.013 320.13C526.034 320.133 526.055 320.136 526.076 320.14C526.148 320.152 526.219 320.167 526.288 320.188C526.298 320.19 526.307 320.192 526.317 320.195C526.393 320.218 526.468 320.248 526.541 320.281C526.56 320.29 526.579 320.299 526.598 320.308C526.662 320.34 526.725 320.375 526.786 320.415C527.304 320.75 527.648 321.332 527.648 321.994C527.648 322.142 527.769 322.262 527.917 322.262C528.066 322.262 528.186 322.142 528.186 321.994C528.186 321.253 527.851 320.591 527.326 320.147C528.096 319.139 529.365 318.5 530.627 318.5C532.709 318.5 534.438 320.149 534.618 322.232C534.344 322.213 533.932 322.203 533.521 322.266C533.374 322.288 533.273 322.425 533.296 322.572C533.316 322.705 533.43 322.8 533.561 322.8C533.574 322.8 533.588 322.799 533.601 322.797C534.2 322.706 534.824 322.791 534.86 322.796C536.112 323.034 537.055 324.187 537.055 325.48C537.055 326.966 535.846 328.175 534.36 328.175H533.292C533.144 328.175 533.024 328.295 533.024 328.444C533.024 328.593 533.144 328.713 533.292 328.713H534.36C536.142 328.713 537.593 327.262 537.593 325.48C537.593 324.005 536.564 322.682 535.167 322.315Z" fill="#333333"/>
<path d="M531.758 329.06L530.067 330.752V325.219C530.067 325.07 529.946 324.95 529.798 324.95C529.649 324.95 529.529 325.07 529.529 325.219V330.752L527.838 329.06C527.733 328.955 527.563 328.955 527.458 329.06C527.353 329.165 527.353 329.335 527.458 329.44L529.608 331.59C529.632 331.615 529.662 331.635 529.695 331.648C529.728 331.662 529.763 331.669 529.798 331.669C529.833 331.669 529.868 331.662 529.901 331.648C529.934 331.635 529.963 331.615 529.988 331.59L532.138 329.44C532.243 329.335 532.243 329.165 532.138 329.06C532.033 328.955 531.863 328.955 531.758 329.06Z" fill="#333333"/>
</g>
<path d="M529.528 289.893C529.336 289.893 529.151 289.82 529.007 289.688C528.462 289.19 527.937 288.722 527.473 288.309L527.471 288.307C526.112 287.097 524.939 286.051 524.123 285.022C523.21 283.871 522.785 282.779 522.785 281.587C522.785 280.429 523.165 279.36 523.855 278.578C524.553 277.786 525.511 277.35 526.552 277.35C527.331 277.35 528.044 277.608 528.671 278.115C528.988 278.371 529.275 278.684 529.528 279.05C529.781 278.684 530.068 278.371 530.385 278.115C531.012 277.608 531.725 277.35 532.504 277.35C533.545 277.35 534.503 277.786 535.201 278.578C535.891 279.36 536.271 280.429 536.271 281.587C536.271 282.779 535.846 283.871 534.933 285.022C534.117 286.051 532.944 287.097 531.586 288.307C531.121 288.72 530.595 289.189 530.049 289.688C529.905 289.82 529.72 289.893 529.528 289.893ZM526.552 278.176C525.734 278.176 524.983 278.518 524.436 279.137C523.881 279.767 523.575 280.637 523.575 281.587C523.575 282.59 523.932 283.487 524.731 284.495C525.503 285.469 526.653 286.493 527.983 287.679L527.986 287.681C528.451 288.095 528.978 288.565 529.527 289.067C530.079 288.564 530.607 288.093 531.073 287.678C532.404 286.493 533.553 285.469 534.325 284.495C535.124 283.487 535.481 282.59 535.481 281.587C535.481 280.637 535.175 279.767 534.62 279.137C534.074 278.518 533.322 278.176 532.504 278.176C531.904 278.176 531.354 278.375 530.868 278.768C530.435 279.118 530.133 279.561 529.956 279.871C529.865 280.03 529.705 280.125 529.528 280.125C529.351 280.125 529.191 280.03 529.1 279.871C528.923 279.561 528.621 279.118 528.188 278.768C527.702 278.375 527.152 278.176 526.552 278.176Z" fill="#333333"/>
<line x1="522.805" y1="261.441" x2="536.252" y2="261.441" stroke="#E0DDDD"/>
<line x1="522.805" y1="301.649" x2="536.252" y2="301.649" stroke="#E0DDDD"/>
<defs>
<filter id="filter0_d" x="0.613281" y="0.832275" width="521.108" height="219.037" filterUnits="userSpaceOnUse" color-interpolation-filters="sRGB">
<feFlood flood-opacity="0" result="BackgroundImageFix"/>
<feColorMatrix in="SourceAlpha" type="matrix" values="0 0 0 0 0 0 0 0 0 0 0 0 0 0 0 0 0 0 127 0"/>
<feOffset dy="4"/>
<feGaussianBlur stdDeviation="6"/>
<feColorMatrix type="matrix" values="0 0 0 0 0 0 0 0 0 0 0 0 0 0 0 0 0 0 0.04 0"/>
<feBlend mode="normal" in2="BackgroundImageFix" result="effect1_dropShadow"/>
<feBlend mode="normal" in="SourceGraphic" in2="effect1_dropShadow" result="shape"/>
</filter>
<filter id="filter1_d" x="28.1035" y="77.1022" width="521.108" height="219.037" filterUnits="userSpaceOnUse" color-interpolation-filters="sRGB">
<feFlood flood-opacity="0" result="BackgroundImageFix"/>
<feColorMatrix in="SourceAlpha" type="matrix" values="0 0 0 0 0 0 0 0 0 0 0 0 0 0 0 0 0 0 127 0"/>
<feOffset dy="4"/>
<feGaussianBlur stdDeviation="6"/>
<feColorMatrix type="matrix" values="0 0 0 0 0 0 0 0 0 0 0 0 0 0 0 0 0 0 0.04 0"/>
<feBlend mode="normal" in2="BackgroundImageFix" result="effect1_dropShadow"/>
<feBlend mode="normal" in="SourceGraphic" in2="effect1_dropShadow" result="shape"/>
</filter>
<filter id="filter2_d" x="59.459" y="160.419" width="521.108" height="219.037" filterUnits="userSpaceOnUse" color-interpolation-filters="sRGB">
<feFlood flood-opacity="0" result="BackgroundImageFix"/>
<feColorMatrix in="SourceAlpha" type="matrix" values="0 0 0 0 0 0 0 0 0 0 0 0 0 0 0 0 0 0 127 0"/>
<feOffset dy="4"/>
<feGaussianBlur stdDeviation="6"/>
<feColorMatrix type="matrix" values="0 0 0 0 0 0 0 0 0 0 0 0 0 0 0 0 0 0 0.04 0"/>
<feBlend mode="normal" in2="BackgroundImageFix" result="effect1_dropShadow"/>
<feBlend mode="normal" in="SourceGraphic" in2="effect1_dropShadow" result="shape"/>
</filter>
<linearGradient id="paint0_linear" x1="229.73" y1="47.8247" x2="229.73" y2="190.152" gradientUnits="userSpaceOnUse">
<stop stop-color="#E6FDFF"/>
<stop offset="1" stop-color="#8ED4FC"/>
</linearGradient>
<linearGradient id="paint1_linear" x1="274.311" y1="124.095" x2="274.311" y2="266.422" gradientUnits="userSpaceOnUse">
<stop stop-color="#DEF7FF"/>
<stop offset="1" stop-color="#F8F8F8"/>
</linearGradient>
<linearGradient id="paint2_linear" x1="288.574" y1="207.411" x2="288.574" y2="349.739" gradientUnits="userSpaceOnUse">
<stop stop-color="#3D6992"/>
<stop offset="1" stop-color="#8CC1F2"/>
</linearGradient>
<clipPath id="clip0">
<rect width="16.1258" height="16.1258" fill="white" transform="translate(462.619 157.166)"/>
</clipPath>
<clipPath id="clip1">
<rect width="16.1258" height="16.1258" fill="white" transform="translate(490.111 233.436)"/>
</clipPath>
<clipPath id="clip2">
<rect width="16.1258" height="16.1258" fill="white" transform="translate(521.467 316.753)"/>
</clipPath>
</defs>
</svg>
