<svg width="33" height="33" viewBox="0 0 33 33" fill="none" xmlns="http://www.w3.org/2000/svg">
<path d="M29.9994 0.253418H2.56373C1.30658 0.253418 0.285156 1.28913 0.285156 2.56056V29.9463C0.285156 31.2177 1.30658 32.2534 2.56373 32.2534H29.9994C31.2566 32.2534 32.2852 31.2177 32.2852 29.9463V2.56056C32.2852 1.28913 31.2566 0.253418 29.9994 0.253418ZM9.95658 27.682H5.21373V12.4106H9.96373V27.682H9.95658ZM7.58516 10.3248C6.06373 10.3248 4.83516 9.08913 4.83516 7.57485C4.83516 6.06056 6.06373 4.82485 7.58516 4.82485C9.09944 4.82485 10.3352 6.06056 10.3352 7.57485C10.3352 9.09628 9.10658 10.3248 7.58516 10.3248ZM27.7352 27.682H22.9923V20.2534C22.9923 18.482 22.9566 16.2034 20.528 16.2034C18.0566 16.2034 17.678 18.132 17.678 20.1249V27.682H12.9352V12.4106H17.4852V14.4963H17.5494C18.1852 13.2963 19.7352 12.032 22.0423 12.032C26.8423 12.032 27.7352 15.1963 27.7352 19.3106V27.682Z" fill="#EAEAF0"/>
</svg>
