<svg width="61" height="54" viewBox="0 0 61 54" fill="none" xmlns="http://www.w3.org/2000/svg">
<rect x="1.16406" y="1" width="58" height="51.1538" stroke="#F7F7F7" stroke-width="2"/>
<path d="M10.3707 14.5409V12.8769H19.7787V14.5409H16.0507V24.0769H14.1307V14.5409H10.3707Z" fill="#F7F7F7"/>
<path d="M34.501 19.2769C34.501 20.0342 34.389 20.7222 34.165 21.3409C33.941 21.9489 33.6264 22.4662 33.221 22.8929C32.8157 23.3196 32.3197 23.6502 31.733 23.8849C31.1464 24.1196 30.4957 24.2369 29.781 24.2369C28.3517 24.2369 27.2104 23.7942 26.357 22.9089C25.5037 22.0129 25.077 20.8022 25.077 19.2769V12.8769H26.997V19.2769C26.997 20.2582 27.253 21.0422 27.765 21.6289C28.277 22.2156 28.9544 22.5089 29.797 22.5089C30.6397 22.5089 31.3117 22.2156 31.813 21.6289C32.325 21.0422 32.581 20.2582 32.581 19.2769V12.8769H34.501V19.2769Z" fill="#F7F7F7"/>
<path d="M39.1995 12.8769H41.0715L46.9115 21.0049L46.8795 12.8769H48.6875V24.0769H46.9755L40.9755 15.7249L41.0075 24.0769H39.1995V12.8769Z" fill="#F7F7F7"/>
<path d="M16.1427 38.5089C16.7187 38.5089 17.2627 38.3862 17.7747 38.1409C18.2974 37.8849 18.7507 37.5222 19.1347 37.0529L20.3987 38.2689C19.876 38.8769 19.2307 39.3569 18.4627 39.7089C17.7054 40.0609 16.9107 40.2369 16.0787 40.2369C15.268 40.2369 14.5054 40.0876 13.7907 39.7889C13.0867 39.4902 12.4734 39.0849 11.9507 38.5729C11.4387 38.0502 11.0334 37.4369 10.7347 36.7329C10.436 36.0289 10.2867 35.2769 10.2867 34.4769C10.2867 33.6662 10.436 32.9089 10.7347 32.2049C11.0334 31.5009 11.4387 30.8929 11.9507 30.3809C12.4734 29.8582 13.0867 29.4476 13.7907 29.1489C14.5054 28.8502 15.268 28.7009 16.0787 28.7009C16.932 28.7009 17.7427 28.8769 18.5107 29.2289C19.2894 29.5809 19.9347 30.0662 20.4467 30.6849L19.1507 31.9649C18.756 31.4742 18.292 31.0956 17.7587 30.8289C17.2254 30.5516 16.6654 30.4129 16.0787 30.4129C15.5347 30.4129 15.028 30.5196 14.5587 30.7329C14.0894 30.9356 13.684 31.2182 13.3427 31.5809C13.012 31.9436 12.7454 32.3756 12.5427 32.8769C12.3507 33.3676 12.2547 33.9009 12.2547 34.4769C12.2547 35.0422 12.3507 35.5756 12.5427 36.0769C12.7454 36.5676 13.0174 36.9942 13.3587 37.3569C13.7107 37.7089 14.1267 37.9916 14.6067 38.2049C15.0867 38.4076 15.5987 38.5089 16.1427 38.5089Z" fill="#F7F7F7"/>
<path d="M28.905 29.0769L24.553 40.2769H26.617L30.057 31.0129L33.529 40.2769H35.513L31.129 29.0769H28.905Z" fill="#F7F7F7"/>
<path d="M42.8835 40.0769V35.6449L38.4515 28.8769H40.6755L43.9075 33.9969L47.1715 28.8769H49.2675L44.8035 35.6929V40.0769H42.8835Z" fill="#F7F7F7"/>
</svg>
